<?xml version="1.0" encoding="utf-8"?>
<!-- Generator: Adobe Illustrator 22.1.0, SVG Export Plug-In . SVG Version: 6.00 Build 0)  -->
<svg version="1.0" id="Layer_1" xmlns="http://www.w3.org/2000/svg" xmlns:xlink="http://www.w3.org/1999/xlink" x="0px" y="0px"
	 viewBox="0 0 553.5 332.494" style="enable-background:new 0 0 553.5 332.494;" xml:space="preserve">
<style type="text/css">
	.st0{fill:#213053;}
	.st1{fill:#9559A3;}
	.st2{fill:#8A3A88;}
	.st3{fill:none;}
	.st4{fill:#1F3645;}
	.st5{fill:#233D52;}
	.st6{fill:#223C52;}
	.st7{fill:#1B3050;}
	.st8{fill:#203952;}
	.st9{fill:#1C3250;}
	.st10{fill:#1F3752;}
	.st11{fill:#1E3551;}
	.st12{fill:#2A2A55;}
	.st13{fill:#502E63;}
	.st14{fill:#4D2E62;}
	.st15{fill:#192D52;}
	.st16{fill:#1E3552;}
	.st17{fill:#1B2F50;}
	.st18{fill:#4D2E63;}
	.st19{fill:#713374;}
	.st20{fill:#392D58;}
	.st21{fill:#64316A;}
	.st22{fill:#262A56;}
	.st23{fill:#352B5A;}
	.st24{fill:#6F3274;}
	.st25{fill:#88357F;}
	.st26{fill:#4E2E63;}
	.st27{fill:#203152;}
	.st28{fill:#282D54;}
	.st29{fill:#482E63;}
	.st30{fill:#2A2A5B;}
	.st31{fill:#382C66;}
	.st32{fill:#91509A;}
	.st33{fill:#8D428D;}
	.st34{fill:#9C72B9;}
	.st35{fill:#9968B0;}
	.st36{fill:#9761AB;}
	.st37{fill:#8B7FC4;}
	.st38{fill:#9462B4;}
	.st39{fill:#8E65B5;}
	.st40{fill:#965EAC;}
	.st41{fill:#8B3D8F;}
	.st42{fill:#8D4395;}
	.st43{fill:#883584;}
	.st44{fill:#78337C;}
	.st45{fill:#6B327A;}
	.st46{fill:#925496;}
	.st47{fill:#883586;}
</style>
<g id="Layer_2_2_">
	<polygon class="st0" points="13.54,330.95 10.155,312.72 8.67,285.523 7.186,258.861 0.891,219.49 0.594,191.046 33.195,130.477 
		76.603,90.216 120.19,72.817 153.028,57.377 230.343,17.71 290.853,3.993 379.451,1.618 381.589,1.321 440.555,15.691 
		480.52,35.347 523.571,74.955 534.438,113.612 535.982,115.572 552.847,157.496 	"/>
	<polygon class="st1" points="411.696,50.014 510.686,170.322 519.296,167.412 421.316,50.014 	"/>
	<polygon class="st2" points="125.95,221.153 127.553,295.202 136.757,291.936 127.85,220.915 	"/>
	<g id="top_head_1_">
		<path class="st3" d="M137.232,65.513c-0.772-0.297-1.306-0.119-1.841-0.059c-1.128,0.119-1.485,1.247-2.435,1.425
			c-1.663,0.297-3.147,0.891-4.691,1.544c-3.444,1.425-6.948,2.85-10.451,4.275c-6.294,2.553-12.589,5.107-18.883,7.72
			c-5.404,2.197-10.748,4.454-16.093,6.71c-2.672,1.128-5.641,1.722-7.898,3.444c-3.444,2.672-6.591,5.76-9.798,8.729
			c-2.435,2.257-4.929,4.513-7.363,6.77c-4.691,4.276-9.323,8.67-14.014,12.945c-2.197,2.019-4.513,3.979-6.651,6.116
			c-0.713,0.713-1.722,1.128-1.841,2.494c17.161-9.976,34.026-20.368,50.95-30.76C103.206,86.475,120.249,76.32,137.232,65.513z"/>
		<path class="st4" d="M142.992,61.059c-16.983,10.808-39.786,25.415-56.71,35.807c-16.924,10.332-36.401,22.565-53.741,32.957
			c2.791-3.207,40.558-37.529,44.002-40.202c4.097-1.722,17.161-7.007,22.506-9.204c6.294-2.613,12.589-5.166,18.883-7.72
			C121.318,71.273,141.983,61.356,142.992,61.059z"/>
		<path class="st5" d="M134.026,81.368c-4.157,9.026-8.373,17.993-12.589,27.019c-2.553,5.523-5.285,10.926-7.482,16.568
			c-1.128,2.91-2.791,3.385-5.641,3.385c-22.387,0.594-75.593,2.078-75.831,1.485c2.435-1.663,105.106-65.38,110.451-68.764
			C141.211,65.157,135.807,77.449,134.026,81.368z"/>
		<path class="st6" d="M32.482,129.824c-1.247,2.375-30.107,56.532-32.126,60.332c1.009,0.356,108.966-60.213,111.579-62.232
			C109.798,127.923,34.68,129.764,32.482,129.824z"/>
		<path class="st6" d="M0.951,190.215c0-0.059-0.059-0.178-0.059-0.297c-0.178,0.059-0.356,0.178-0.534,0.238
			c0,0.119,0,0.238,0,0.297C0.594,190.453,0.891,190.631,0.951,190.215z"/>
		<path class="st7" d="M92.577,185.821c1.128,0.059,1.603-0.356,1.9-1.366c2.316-7.482,4.691-14.964,7.066-22.387
			c2.613-8.254,10.629-34.085,10.986-34.917c-0.238,0-31.769,18.349-35.689,20.546c-5.641,3.147-11.223,6.354-16.805,9.501
			c-4.691,2.613-9.382,5.226-14.074,7.838c-5.819,3.266-44.061,24.05-45.724,25.178C20.19,190.215,91.211,185.702,92.577,185.821z"
			/>
		<path class="st3" d="M112.529,189.621c0-20.13,0-40.261,0.059-60.391c0-1.128-0.238-1.544-1.306-1.306
			c0.713,0.356,0.891,0.594,0.653,1.485c-0.772,2.613-1.603,5.226-2.435,7.838c-2.613,8.254-5.285,16.508-7.898,24.762
			c-2.375,7.482-4.751,14.905-7.066,22.387c-0.297,1.069-0.772,1.485-1.9,1.366c-1.425-0.119-2.85,0.178-4.275,0.238
			c-4.216,0.178-8.432,0.475-12.708,0.653c-3.919,0.178-7.838,0.416-11.758,0.653c-4.216,0.178-8.492,0.416-12.708,0.653
			c-3.86,0.178-7.779,0.475-11.639,0.713c-2.791,0.178-5.701,0.297-8.551,0.297c-2.969,0-5.938,0.238-8.907,0.356
			c-4.097,0.238-8.254,0.891-12.351,0.416c-2.138-0.238-3.979,0.534-5.998,0.475c-0.534,0-1.366,0-1.781,0.594
			c36.401,0.059,72.862,0.059,109.263,0.119C112.292,190.928,112.529,190.749,112.529,189.621z"/>
		<path class="st8" d="M26.366,209.633c10.689-3.8,21.437-7.66,32.126-11.52c4.157-1.485,32.363-11.639,34.442-12.708
			c-22.268,0.594-77.969,4.038-92.873,4.751C0,199.597,0,209.039,0,218.421c1.009-0.178,2.078-0.297,3.028-0.594
			C10.808,215.155,18.587,212.424,26.366,209.633z"/>
		<path class="st9" d="M44.299,245.143c0.119,0,0.238,0,0.297,0c2.732-3.207,5.523-6.354,8.195-9.62
			c4.276-5.226,8.551-10.451,12.827-15.677c3.919-4.751,26.366-32.838,27.256-34.442c-0.238,0-92.933,32.482-92.873,33.016
			C0.06,219.075,38.836,241.877,44.299,245.143z"/>
		<path class="st10" d="M111.936,127.923c0.891-2.553,11.045-23.456,14.549-31.354c2.019-4.513,4.097-9.026,6.116-13.539
			c2.91-6.473,9.145-19.834,10.332-21.971c5.463-2.553,12.292-6.294,17.755-8.907c6.829-3.325,13.717-6.532,20.665-9.857
			c0.059,1.663-1.425,2.435-2.197,3.504c-2.791,3.8-5.76,7.423-8.729,11.045c-2.553,3.147-5.166,6.176-7.72,9.323
			c-2.91,3.622-5.76,7.304-8.729,10.926c-2.435,3.028-4.929,5.998-7.363,9.026c-3.444,4.276-6.888,8.551-10.332,12.827
			c-2.969,3.682-5.998,7.245-8.967,10.926C124.406,113.434,114.014,126.082,111.936,127.923z"/>
		<path class="st3" d="M113.479,127.329c-0.178-0.119-0.297-0.238-0.356-0.238c-0.119,0.059-0.238,0.178-0.297,0.297
			c0.119,0.059,0.178,0.238,0.297,0.238C113.242,127.567,113.301,127.448,113.479,127.329z"/>
		<path class="st11" d="M231.887,16.345c-1.603,1.722-65.795,62.173-70.13,66.211c-4.335,4.038-8.729,8.076-13.064,12.114
			c-4.335,3.979-8.67,8.017-12.945,11.995c-4.335,3.979-23.337,22.09-23.753,21.674c-0.356-0.356,14.192-17.043,18.468-22.387
			c2.85-3.622,5.879-7.126,8.729-10.689c2.791-3.444,5.463-7.007,8.254-10.451c2.85-3.563,5.76-7.066,8.67-10.57
			c3.325-4.157,22.921-28.682,25.356-31.769C186.816,39.385,225.533,19.432,231.887,16.345z"/>
		<path class="st3" d="M113.479,127.329c-0.178,0.119-0.297,0.238-0.416,0.238c-0.119,0-0.178-0.119-0.297-0.238
			c0.119-0.119,0.178-0.238,0.297-0.297C113.183,127.092,113.361,127.211,113.479,127.329z"/>
		<path class="st0" d="M112.232,127.923c17.696-16.508,117.636-110.272,119.655-111.401c-0.238,0.95-30.938,95.13-36.104,109.857
			C171.199,127.389,113.658,127.923,112.232,127.923z"/>
		<path class="st3" d="M119.952,128.28c0.356-0.653,0.95-0.297,1.425-0.297c3.385-0.059,6.77-0.119,10.095,0
			c2.435,0.119,4.869-0.416,7.304-0.356c1.9,0.059,3.86,0,5.76,0c0.594,0,1.188-0.119,1.425,0.653
			C137.292,128.28,128.622,128.28,119.952,128.28z"/>
		<path class="st3" d="M94.537,186.415c33.254,0.059,66.567,0.059,99.821,0.178c1.128,0,1.425-0.178,1.425-1.366
			c-0.059-19.596,0-39.192,0-58.729c-2.672,0.891-4.869,2.672-7.304,3.979c-4.81,2.672-9.501,5.582-14.311,8.373
			c-5.76,3.385-11.52,6.829-17.34,10.214c-5.344,3.147-10.748,6.176-16.093,9.323c-5.819,3.385-11.52,6.829-17.34,10.214
			c-5.344,3.147-10.748,6.176-16.093,9.323c-3.207,1.841-6.532,3.622-9.561,5.701c-1.485,1.01-2.791,2.138-4.572,2.494
			C93.527,186.771,94.121,186.415,94.537,186.415z"/>
		<path class="st12" d="M112.411,127.626c-0.297,0.772-7.363,21.615-10.748,31.948c-2.138,6.532-4.216,13.064-6.294,19.655
			c-0.653,2.078-1.247,4.216-2.197,6.176c0,0.238,0,0.416,0,0.653c1.781-0.356,99.762-58.076,102.553-59.679
			C194.833,126.082,115.617,127.508,112.411,127.626z"/>
		<path class="st3" d="M195.189,127.211c-0.119-0.238-0.119-0.475-0.416-0.416c-0.238,0.059-0.297,0.238-0.297,0.475
			c0,0.297,0.119,0.534,0.416,0.416C195.07,127.626,195.13,127.329,195.189,127.211z"/>
		<path class="st13" d="M127.553,221.45c0.119,0,0.238,0,0.297,0c1.306-1.96,2.672-3.919,4.038-5.879
			c7.423-10.273,63.954-88.36,63.836-89.132c-0.059-0.356-21.318,11.936-26.128,14.667c-4.097,2.375-8.254,4.81-12.351,7.185
			c-4.751,2.791-9.442,5.582-14.192,8.313c-4.038,2.375-8.076,4.691-12.114,7.007c-4.751,2.791-9.442,5.582-14.192,8.313
			c-4.038,2.375-8.135,4.691-12.233,7.126c-3.919,2.316-7.838,4.632-11.758,7.007c0,0.119,0,0.238,0,0.297
			C96.021,189.324,126.543,220.797,127.553,221.45z"/>
		<path class="st3" d="M94.062,221.45c11.164,0,22.328,0,33.491,0c-1.009-0.653-1.544-1.722-2.375-2.553
			c-7.542-7.542-15.024-15.083-22.565-22.565c-0.238-0.238-0.534-0.534-0.772-0.772c-2.672-3.325-5.819-6.176-8.907-9.085
			c0,11.283,0,22.565-0.059,33.848C92.815,221.212,93.052,221.45,94.062,221.45z"/>
		<path class="st14" d="M74.109,236.533c6.354-1.781,12.767-3.682,19.121-5.463c9.561-2.672,19.121-5.404,28.741-8.017
			c1.9-0.534,3.622-1.485,5.641-1.603c0-0.119,0-0.238,0-0.297c-2.732-2.138-4.988-4.81-7.245-7.423
			c-0.119-0.178-0.297-0.297-0.475-0.475c-4.276-4.394-8.61-8.729-12.767-13.183c-4.335-4.572-8.61-9.264-13.064-13.717
			c-0.297-0.238-0.534-0.534-0.475-0.95c-0.238,0-0.416,0-0.653,0c-2.197,2.732-4.276,5.523-6.532,8.254
			c-4.038,4.988-8.195,9.857-12.233,14.845c-4.394,5.404-8.729,10.867-13.123,16.271c-4.454,5.523-9.026,10.926-13.48,16.449
			c-0.831,1.069-1.9,1.96-2.435,3.504c0.356-0.059,0.534-0.119,0.713-0.178C55.226,241.877,64.667,239.205,74.109,236.533z"/>
		<path class="st3" d="M107.066,200.132c4.216,4.454,8.551,8.789,12.767,13.183c0.178,0.178,0.297,0.297,0.475,0.475
			c2.257,2.613,4.513,5.226,7.245,7.423c0-11.52,0-23.04,0.059-34.56c0-0.95-0.178-1.128-1.128-1.128
			c-10.986,0.059-21.971,0-32.957,0c-0.059,0.416,0.178,0.653,0.475,0.95C98.515,190.868,102.731,195.5,107.066,200.132z"/>
		<path class="st14" d="M44.656,244.49c0,0.119,0,0.238,0,0.297c0.119-0.059,0.238-0.119,0.356-0.178
			C44.893,244.609,44.774,244.549,44.656,244.49z"/>
		<path class="st15" d="M7.186,258.267c0.475-0.119,1.009-0.297,1.485-0.475c8.492-3.088,31.235-11.342,34.145-12.351
			c0.297-0.119,0.772-0.356,0.831-0.594c0.119-0.356-0.356-0.534-0.713-0.713c-0.891-0.475-1.781-1.069-2.672-1.603
			c-6.354-3.8-12.648-7.66-19.062-11.401C15.915,228.101,2.495,219.431,0,218.125c-0.059,2.078,5.641,34.679,6.354,39.548
			C6.473,258.267,6.711,258.386,7.186,258.267z"/>
		<path class="st11" d="M39.252,277.328c0.356,0.178,0.713,0.475,0.831,0.891c0.119,0,0.238,0,0.297,0
			c0.416-0.95,0.534-2.019,0.653-3.028c0.475-5.226,2.85-29.157,3.147-30.879c-1.96-0.297-17.28,6.413-23.1,8.492
			c-5.047,1.841-9.501,3.741-14.608,5.344c0,0.238,0,0.594,0,0.831C8.848,259.811,33.67,274.181,39.252,277.328z"/>
		<path class="st16" d="M7.008,285.286c0.119,0,9.501-2.197,14.014-3.147c4.276-0.891,8.551-1.722,12.767-2.613
			c2.138-0.475,4.216-0.95,6.71-1.544c-1.722-0.95-31.413-18.824-34.085-20.13C6.354,258.682,7.126,284.514,7.008,285.286z"/>
		<path class="st3" d="M6.354,263.255L6.354,263.255L6.354,263.255z"/>
		<path class="st3" d="M7.008,285.286c0.119-0.772-0.356-1.366-0.356-2.138c0.238-6.591-0.475-13.242-0.297-19.834
			c0,0.891-0.297,13.955-0.356,21.021C5.998,285.107,6.176,285.464,7.008,285.286z"/>
		<path class="st3" d="M39.727,312.958c0.534,0,1.009,0.178,1.009-0.772c-0.059-11.223,0-22.506,0-33.729
			c0-0.178,0.178-0.594-0.297-0.475c-2.375,3.028-4.988,5.819-7.542,8.67c-3.563,4.038-7.126,8.195-10.689,12.233
			c-1.9,2.138-3.741,4.276-5.701,6.354c-2.197,2.316-3.919,5.107-6.532,7.007c-0.119,0.119-0.059,0.534-0.059,0.772
			C19.834,312.958,29.81,312.958,39.727,312.958z"/>
		<path class="st17" d="M16.509,305.179c1.96-2.078,3.86-4.216,5.701-6.354c3.563-4.038,7.066-8.195,10.689-12.233
			c2.553-2.85,5.166-5.641,7.542-8.67c-0.297,0-0.653,0-0.95,0c-2.613,0.95-5.344,1.247-8.017,1.9
			c-4.81,1.128-9.62,2.019-14.43,3.029c-3.444,0.713-6.591,1.366-10.036,2.019c0,0.238,2.613,27.138,2.732,27.019
			C14.905,306.485,14.252,307.494,16.509,305.179z"/>
		<path class="st3" d="M6.651,284.989c3.444-0.713,6.888-1.366,10.332-2.078c4.81-1.009,9.62-1.9,14.43-3.029
			c2.672-0.594,5.463-0.95,8.017-1.9c-10.57,0-21.081,0-31.651-0.059c-0.95,0-1.188,0.178-1.128,1.128
			C6.77,281.01,6.711,282.97,6.651,284.989z"/>
		<path class="st18" d="M93.171,243.065c7.66-4.929,15.202-9.917,22.803-14.905c2.91-1.9,5.938-3.622,8.67-5.76
			c0-0.297,0-0.653,0-0.95c-2.85,0.475-5.523,1.603-8.313,2.435c-4.097,1.306-8.254,2.435-12.411,3.563
			c-8.848,2.435-17.636,4.929-26.484,7.363c-5.879,1.603-11.817,3.207-17.696,4.81c-4.869,1.366-15.261,4.335-15.855,4.632
			c-0.594,5.107-3.741,33.195-3.919,33.551c0.119,0,20.427-13.539,28.266-18.765C76.603,253.754,84.917,248.409,93.171,243.065z"/>
		<path class="st3" d="M40.44,277.625c0.178-0.356-0.119-0.297-0.297-0.297C40.024,277.566,40.143,277.685,40.44,277.625z"/>
		<path class="st18" d="M125.593,221.569c-0.297-0.178-0.594-0.119-0.891-0.059c0,0.297,0,0.653,0,0.95
			C125.356,222.578,125.296,221.925,125.593,221.569z"/>
		<path class="st0" d="M30.938,303.694c2.553-6.473,8.313-21.793,9.145-25.415c-3.028,3.444-24.287,27.731-30.404,33.551
			c0,0.416,2.197,11.817,4.038,20.665l6.651-2.138C24.228,320.796,29.157,308.207,30.938,303.694z"/>
		<path class="st19" d="M140.973,215.571c9.976-4.751,19.834-9.739,29.691-14.608c7.779-3.86,15.558-7.66,23.337-11.52
			c0.297-0.178,0.831-0.059,0.831-0.772c0-4.691,0.831-56.235,1.306-62.173c-0.119,0-0.238,0-0.297,0
			c-4.276,5.998-66.686,93.23-68.23,95.427c0.95-0.356,1.485-0.475,1.96-0.713C133.372,219.312,137.173,217.412,140.973,215.571z"/>
		<path class="st20" d="M195.783,126.439c0-0.534,33.967-103.384,36.104-110.094c2.257,2.553,59.026,77.018,59.026,77.434
			c-0.297,0.059-0.653,0.059-0.891,0.119C285.865,95.382,210.272,121.391,195.783,126.439z"/>
		<path class="st3" d="M194.773,188.73c31.472,0.059,62.945,0.059,94.417,0.178c1.128,0,1.425-0.238,1.425-1.366
			c0-31.116,0.059-62.292,0.059-93.408c-0.356,0.178-0.713,0.416-0.653-0.297c-0.238,0-0.416,0-0.653,0
			c0.416,0.713,0,1.128-0.475,1.603c-4.572,4.513-8.967,9.204-13.658,13.598c-2.435,2.257-4.751,4.572-7.126,6.888
			c-7.779,7.601-15.38,15.321-23.278,22.803c-5.166,4.869-9.976,10.095-15.202,14.905c-5.404,4.929-10.332,10.392-15.677,15.321
			c-5.166,4.751-9.857,9.917-15.024,14.667c-1.781,1.663-3.444,3.444-5.344,4.929C193.764,189.087,194.358,188.73,194.773,188.73z"
			/>
		<path class="st21" d="M244.832,138.612c7.898-7.423,15.499-15.202,23.278-22.803c2.375-2.316,4.691-4.632,7.126-6.888
			c4.691-4.394,10.689-10.689,15.202-15.202c0.475-0.475-93.052,32.185-94.596,32.719c-0.297,3.622-2.435,60.57-2.435,62.41
			c1.9-1.544,30.819-30.404,36.223-35.332C234.797,148.707,239.666,143.481,244.832,138.612z"/>
		<path class="st21" d="M290.616,94.076c-0.356,0.178-0.713,0.416-0.653-0.297C290.2,93.897,290.675,93.422,290.616,94.076z"/>
		<path class="st22" d="M231.768,16.404c0-0.238,52.137-12.173,60.273-14.252c0.772-0.178,0.653,0.356,0.653,0.831
			c0,2.85-1.366,87.41-2.197,90.498c-2.019-2.613-4.038-5.107-5.938-7.66c-3.741-4.988-7.482-10.036-11.223-15.024
			c-4.335-5.701-8.729-11.342-13.064-17.043C255.937,48.114,233.372,18.304,231.768,16.404z"/>
		<path class="st3" d="M381.055,0.311c0.534-0.119,0.297,0.297,0.297,0.475c0,30.76-0.059,61.46-0.059,92.22
			c0,1.128-0.653,0.772-1.128,0.772c-17.221,0-34.382,0-51.603-0.059c-12.53,0-25.059,0-37.589-0.059
			c-0.119-0.594,0.356-0.831,0.713-1.188c2.969-3.147,6.176-6.057,9.026-9.264c2.969-3.385,6.354-6.294,9.323-9.679
			c2.91-3.325,6.235-6.235,9.264-9.501c3.504-3.8,7.304-7.304,10.808-11.164c2.375-2.672,5.047-5.047,7.423-7.72
			c3.147-3.504,6.71-6.71,9.917-10.214c2.672-3.028,5.76-5.701,8.432-8.729c2.969-3.385,6.354-6.473,9.442-9.739
			c4.988-5.344,10.214-10.451,15.321-15.677C380.817,0.668,380.936,0.49,381.055,0.311z"/>
		<path class="st23" d="M381.233,0.014c-0.119,0.178-10.867,11.164-15.855,16.508c-3.088,3.325-6.473,6.354-9.442,9.739
			c-2.672,3.028-5.76,5.701-8.432,8.729c-3.147,3.563-6.71,6.71-9.917,10.214c-2.375,2.672-5.047,5.047-7.423,7.72
			c-3.504,3.86-7.304,7.304-10.808,11.164c-2.969,3.266-26.722,27.375-28.622,29.632c0.059-6.057,1.01-73.812,1.366-91.567
			C313.715,1.618,378.739,0.014,381.233,0.014z"/>
		<path class="st24" d="M381.233,0.014c-0.653,3.088-5.641,26.187-7.601,34.323c-1.781,7.542-3.622,15.083-5.404,22.625
			c-0.356,1.485-0.772,2.91-1.009,4.394c-0.178,1.128-0.653,1.663-1.722,2.138c-10.332,4.038-20.606,8.076-30.879,12.292
			c-8.432,3.504-40.974,16.449-43.646,17.28c1.425-1.722,15.439-15.558,20.19-20.724c3.028-3.266,6.354-6.235,9.264-9.501
			c3.028-3.385,6.473-6.354,9.442-9.739c2.91-3.266,6.235-6.116,9.145-9.442c3.028-3.444,6.532-6.473,9.56-9.857
			C351.423,30.537,381.233,0.014,381.233,0.014z"/>
		<path class="st25" d="M195.07,188.612c3.504-1.425,6.948-2.91,10.451-4.335c6.235-2.613,12.411-5.285,18.646-7.898
			c6.77-2.85,13.539-5.582,20.309-8.373c8.373-3.504,16.686-7.007,25.059-10.511c9.085-3.8,18.171-7.542,27.256-11.342
			c4.157-1.722,8.313-3.385,12.47-5.107c0-0.238,0-0.416,0-0.653c-0.238,0-0.534,0-0.653-0.356
			c-0.534-1.544-1.069-3.028-1.663-4.513c-1.306-3.325-2.732-6.651-4.038-10.036c-3.682-9.382-12.411-32.126-12.648-32.126
			c-0.356,0.416-0.95,1.247-1.306,1.603c-5.166,4.988-10.095,10.154-15.321,15.024c-7.066,6.532-13.658,13.539-20.606,20.249
			c-10.926,10.451-21.556,21.259-32.363,31.829c-2.85,2.791-5.701,5.582-8.61,8.373c-6.176,5.879-12.173,12.055-18.171,18.111
			c0.059,0.059,0.178,0.178,0.238,0.238C194.476,188.73,194.773,188.73,195.07,188.612z"/>
		<path class="st3" d="M309.202,140.334c-0.238,0-0.534,0-0.653-0.356c-0.534-1.544-1.069-3.028-1.663-4.513
			c-1.306-3.325-2.732-6.651-4.038-10.036c-3.682-9.382-7.363-18.824-11.045-28.206c-0.475-1.188-1.128-2.257-1.247-3.504
			c5.819,0,11.698,0.059,17.518,0c0.95,0,1.128,0.178,1.128,1.128C309.262,110.049,309.262,125.192,309.202,140.334z"/>
		<path class="st25" d="M194.18,188.79c-0.059-0.059-0.178-0.178-0.238-0.238c-0.119,0.119-0.238,0.297-0.297,0.416
			C193.883,189.146,194.061,189.027,194.18,188.79z"/>
		<path class="st26" d="M381.233,0.014c0.119,0,16.033,20.487,21.081,27.256c3.979,5.285,7.898,10.57,11.936,15.736
			c1.188,1.544,2.138,3.325,3.741,4.632c0,0.238,0,0.416,0,0.653c-0.475-0.119-0.891,0.178-1.366,0.297
			c-9.679,2.791-19.359,5.582-29.038,8.432c-6.532,1.9-13.005,4.038-19.596,5.819c-1.425,0.416-1.247-0.416-1.069-1.009
			c0.356-1.069,0.534-2.197,0.831-3.325c1.366-5.404,2.435-10.926,3.682-16.389c1.544-6.888,3.207-13.717,4.81-20.606
			C377.907,14.207,379.214,7.2,381.233,0.014z"/>
		<path class="st27" d="M442.218,14.741c-2.969,3.86-12.767,17.577-17.043,23.218c-2.316,3.147-4.81,6.176-7.066,9.382
			c-0.772,1.128-1.188,0.534-1.603-0.059c-3.325-4.394-6.532-8.907-9.857-13.302c-3.979-5.344-8.017-10.629-12.055-15.974
			c-4.276-5.819-9.026-12.233-13.361-17.993C380.817-0.52,439.427,13.91,442.218,14.741z"/>
		<path class="st28" d="M417.278,48.589c0-0.297,0-0.653,0-0.95c0.297-0.119,0.831,0.238,0.95-0.297
			c0.297-1.306,20.784-28.978,23.515-32.779c3.979,1.9,38.598,18.943,40.795,20.606c-3.325,0.594-35.867,7.779-40.617,8.67
			c-4.276,0.831-8.551,1.663-12.827,2.494C425.116,47.104,421.197,47.817,417.278,48.589z"/>
		<path class="st3" d="M494.059,71.807c0.119,0.534-0.297,0.297-0.475,0.297c-25.059,0-50.118-0.059-75.178-0.059
			c-1.009,0-0.772-0.475-0.772-1.009c0-7.482,0-15.024,0-22.506c0.297-0.059,0.772,0.119,0.831-0.238
			c0.059-0.594-0.534-0.297-0.831-0.416c0-4.276,0-8.551,0-12.827c21.021,0,41.983,0.059,63.004,0.059
			c-0.713,1.009-1.9,0.713-2.85,0.891c-5.107,1.188-10.273,2.197-15.38,3.207c-5.641,1.128-11.223,2.138-16.865,3.207
			c-5.107,1.009-10.154,2.197-15.261,3.147c-3.8,0.653-7.542,1.544-11.283,2.316c-0.238,0.059-0.594,0.059-0.594,0.356
			c0,0.297,0.238,0.475,0.594,0.594c7.66,2.257,15.261,4.513,22.921,6.829c11.461,3.504,22.981,7.007,34.442,10.57
			C482.242,68.126,488.18,69.966,494.059,71.807z"/>
		<path class="st29" d="M494.059,71.807c-5.938-1.841-11.817-3.682-17.755-5.463c-11.461-3.504-22.921-7.066-34.442-10.57
			c-7.601-2.316-15.261-4.572-22.921-6.829c-0.356-0.119-0.594-0.297-0.594-0.594c0-0.356,0.356-0.297,0.594-0.356
			c3.741-0.772,7.482-1.603,11.283-2.316c5.107-0.891,10.154-2.138,15.261-3.147c5.641-1.128,11.223-2.138,16.864-3.207
			c5.166-1.009,19.537-4.157,20.19-4.157c0.356,1.366,0.653,2.732,1.069,4.097c2.197,6.829,4.394,13.717,6.651,20.546
			c1.247,3.8,2.138,7.72,3.8,11.401C494.059,71.332,494.059,71.57,494.059,71.807z"/>
		<path class="st3" d="M494.059,71.154c-1.663-3.682-2.553-7.601-3.8-11.401c-2.257-6.829-4.454-13.658-6.651-20.546
			c-0.416-1.366-0.713-2.732-1.069-4.097c3.504,0,6.948,0.059,10.451,0c0.95,0,1.128,0.178,1.128,1.128
			C494.059,47.876,494.059,59.515,494.059,71.154z"/>
		<path class="st29" d="M417.634,47.936c0.297,0.059,0.891-0.178,0.831,0.416c-0.059,0.356-0.534,0.238-0.831,0.238
			C417.634,48.351,417.634,48.114,417.634,47.936z"/>
		<path class="st30" d="M524.937,76.023c-3.147-0.119-6.176-0.891-9.264-1.306c-3.266-0.475-6.473-1.069-9.739-1.603
			c-3.682-0.594-7.363-1.069-10.986-1.663c-0.713-0.119-1.188-0.534-1.425-1.306c-2.613-8.017-5.344-15.974-7.898-24.05
			c-0.891-2.732-3.444-10.689-3.088-10.926c0.475-0.356,34.323,33.016,39.608,38.242c0.831,0.831,1.841,1.544,2.791,2.316
			C524.937,75.786,524.937,75.905,524.937,76.023z"/>
		<path class="st3" d="M536.457,118.778c-14.073,0-28.147-0.059-42.161,0c-1.009,0-1.247-0.238-1.247-1.247
			c0.059-15.142,0.059-30.285,0.059-45.368c0.178,0,0.416-0.059,0.475,0.059c1.603,1.96,3.444,3.682,5.344,5.404
			c2.91,2.732,5.404,5.938,8.076,8.907c4.81,5.285,9.62,10.57,14.489,15.796c3.028,3.266,6.235,6.413,9.026,9.798
			c1.603,1.9,3.86,3.325,4.751,5.819c0.238,0.653,0.831,0.238,1.247,0.178l-0.059-0.059
			C536.101,118.303,536.457,118.541,536.457,118.778z"/>
		<path class="st31" d="M536.457,118.125c-0.416,0.059-1.009,0.475-1.247-0.178c-0.831-2.553-3.147-3.919-4.751-5.819
			c-2.85-3.444-6.057-6.532-9.026-9.798c-4.869-5.226-9.679-10.511-14.489-15.796c-2.672-2.969-5.166-6.176-8.076-8.907
			c-1.9-1.722-3.682-3.444-5.344-5.404c-0.059-0.059-0.297,0-0.475-0.059c0-0.534-0.178-1.188,0.831-1.009
			c0.475,0.119,0.95,0,1.425,0c0.653,0.594,1.544,0.475,2.316,0.594c3.919,0.594,7.838,1.009,11.758,1.663
			c4.869,0.831,9.798,1.603,14.727,2.197c0.356,0.059,0.653,0,0.772,0.534c0.772,3.028,1.722,5.998,2.553,8.967
			c2.375,8.551,4.751,17.161,7.126,25.772C535.27,113.315,536.101,115.631,536.457,118.125z"/>
		<path class="st1" d="M503.678,157.496c-3.563-4.513-7.126-9.026-10.689-13.539c-3.504-4.454-7.066-8.848-10.57-13.242
			c-3.088-3.919-6.176-7.779-9.264-11.698c-3.504-4.454-7.007-8.848-10.57-13.302c-3.147-3.919-6.235-7.898-9.382-11.817
			c-3.444-4.335-6.888-8.729-10.332-13.064c-3.504-4.394-7.007-8.789-10.451-13.183c-3.563-4.513-7.185-9.026-10.689-13.539
			c-1.603-2.019-3.385-3.919-4.751-6.176c-0.653,0-9.085,2.553-12.47,3.444c-12.173,3.385-24.347,6.71-36.52,10.095
			c-0.356,0.119-1.009,0-1.009,0.534c0,0.297,0.356,0.653,0.594,0.891c3.741,3.088,7.482,6.235,11.223,9.323
			c4.513,3.682,9.026,7.363,13.539,11.045c3.325,2.732,6.591,5.523,9.857,8.254c3.8,3.147,7.66,6.176,11.461,9.264
			c3.979,3.325,7.957,6.71,11.936,9.976c4.454,3.682,8.967,7.245,13.42,10.926c4.513,3.741,9.026,7.542,13.539,11.283
			c2.316,1.9,26.425,22.209,49.109,41.211l12.055-3.919C510.389,166.047,507.063,161.771,503.678,157.496z"/>
		<path class="st32" d="M527.194,163.018c-4.394-12.114-8.729-24.168-13.123-36.282c-4.157-11.461-8.314-22.862-12.47-34.323
			c-2.375-6.473-4.632-13.005-7.007-19.477c-0.416-1.128-0.831-2.138-2.375-2.316c-1.366-0.119-2.732-0.772-4.097-1.188
			c-6.888-2.138-13.777-4.276-20.665-6.354c-9.323-2.85-18.646-5.641-27.969-8.373c-4.632-1.366-9.264-2.672-13.836-4.335
			c-2.435-0.891-4.929-1.663-7.423-2.435c-0.475,0.297-1.544-0.713-1.603,0.653c0.534,0.238,0.891,0.713,1.247,1.188
			c3.504,4.454,6.948,8.907,10.511,13.302c3.622,4.572,68.171,85.748,72.98,91.805c4.097,5.166,8.254,10.214,12.351,15.38
			l14.37-4.691C527.847,164.74,527.491,163.909,527.194,163.018z"/>
		<path class="st3" d="M494.237,71.57c-0.059,0.059-0.119,0.059-0.119,0.119c0,0.059,0.059,0.059,0.059,0.119
			c0.059-0.059,0.119-0.059,0.119-0.119C494.296,71.629,494.296,71.57,494.237,71.57z"/>
		<path class="st33" d="M538.654,150.488c-0.238-3.207-0.534-6.473-0.713-9.679c-0.297-4.988-0.831-9.917-1.188-14.845
			c-0.237-3.444-0.475-6.888-0.653-10.332c0-0.534-0.356-0.831-0.653-1.188c-2.435-2.613-4.988-5.107-7.482-7.72
			c-5.226-5.523-10.511-10.926-15.677-16.449c-3.979-4.276-8.076-8.373-12.173-12.53c-1.009-1.009-2.078-2.019-2.91-3.147
			c-0.534-0.772-1.188-1.544-2.138-1.9c-0.178-0.059-0.356-0.297-0.534-0.059c-0.119,0.178-0.178,0.534-0.119,0.594
			c0.772,0.594,0.475,1.485,0.772,2.197c1.128,3.088,2.257,6.235,3.385,9.323c2.85,7.838,5.701,15.677,8.551,23.575
			c4.572,12.708,9.026,25.475,13.598,38.183c2.316,6.413,4.632,12.827,7.007,19.299l11.758-3.8
			C539.13,158.089,538.951,154.289,538.654,150.488z"/>
		<path class="st33" d="M494.237,71.57c0.059,0.059,0.059,0.059,0.059,0.119c0,0.059-0.059,0.059-0.119,0.119
			c-0.059-0.059-0.059-0.059-0.059-0.119C494.118,71.629,494.177,71.57,494.237,71.57z"/>
		<path class="st34" d="M366.209,61.356c-0.119,0.119,39.905,90.973,60.273,137.172l75.771-24.525
			C450.472,130.774,367.397,61.831,366.209,61.356z"/>
		<path class="st34" d="M367.159,63.256c-0.119,0.119-0.238,0.238-0.356,0.356c-0.416-0.178-0.653-0.534-0.653-1.009
			c0.119,0,0.238,0,0.416,0C366.744,62.841,366.981,63.078,367.159,63.256z"/>
		<path class="st34" d="M366.565,62.662c-0.119,0-0.238,0-0.416,0c-0.238-0.119-0.356-0.356-0.119-0.475
			C366.269,62.069,366.387,62.425,366.565,62.662z"/>
		<path class="st35" d="M366.209,61.356c-0.416,0-60.213,25.594-64.905,27.494c-3.741,1.544-7.363,3.385-11.283,4.572
			c0,0.238,6.591,6.473,9.917,9.442c4.394,3.86,8.789,7.72,13.123,11.579c2.078,1.841,4.097,3.682,6.176,5.523
			c4.275,3.741,8.551,7.482,12.826,11.223c3.088,2.732,6.176,5.523,9.264,8.313c4.394,3.86,8.789,7.72,13.123,11.579
			c2.078,1.841,4.097,3.682,6.176,5.523c4.157,3.622,8.313,7.245,12.47,10.926c3.207,2.85,6.354,5.76,9.62,8.61
			c4.869,4.276,9.798,8.492,14.667,12.767c3.682,3.207,7.304,6.473,10.986,9.739c1.603,1.425,3.207,2.85,4.81,4.276l13.302-4.335
			C420.662,185.464,368.169,65.157,366.209,61.356z"/>
		<path class="st36" d="M384.618,177.151c-2.435-2.138-4.81-4.394-7.185-6.532c-4.751-4.276-9.501-8.492-14.252-12.708
			c-2.316-2.078-4.572-4.157-6.888-6.176c-4.632-4.157-9.323-8.254-13.955-12.411c-2.553-2.257-4.988-4.632-7.542-6.888
			c-4.988-4.454-9.976-8.967-14.964-13.42c-2.257-1.96-4.454-3.979-6.651-5.998c-4.632-4.216-9.382-8.313-14.014-12.53
			c-2.316-2.078-8.254-7.126-8.848-7.126c0,0.119,6.116,15.736,8.729,22.921c2.613,7.126,5.166,14.311,7.779,21.437
			c0.475,1.306,1.009,2.553,2.375,3.444c3.86,2.316,7.601,4.81,11.401,7.304c9.976,6.532,19.952,13.064,29.929,19.596
			c9.798,6.413,19.537,12.767,29.335,19.121c4.335,2.85,15.736,10.214,27.316,17.696l6.77-2.197
			C400.888,191.343,386.993,179.289,384.618,177.151z"/>
		<path class="st37" d="M391.684,194.253c-8.313-5.344-16.627-10.689-24.94-16.093c-11.936-7.72-23.812-15.439-35.748-23.159
			c-7.185-4.632-14.43-9.264-21.615-13.895c-0.297-0.178-0.653-0.356-0.831-0.713c-0.178,0.119-0.713-0.297-0.653,0.297
			c1.722,3.979,2.791,8.195,4.157,12.351c3.444,10.689,6.888,21.378,10.332,32.066c3.028,9.382,5.998,18.765,9.026,28.147
			c1.544,4.869,3.147,9.798,4.691,14.667l71.615-23.218C402.373,201.201,397.028,197.697,391.684,194.253z"/>
		<path class="st38" d="M331.233,212.305c-2.019-6.532-4.157-13.005-6.176-19.537c-4.216-13.302-8.373-26.663-12.53-39.964
			c-1.306-4.216-2.613-8.492-3.919-12.708c-0.119,0-0.238,0-0.297,0c-2.257,1.306-4.691,2.138-7.066,3.147
			c-6.235,2.672-12.47,5.285-18.705,7.957c-6.948,2.91-13.836,5.879-20.784,8.789c-6.116,2.613-12.292,5.226-18.408,7.838
			c-6.71,2.85-13.48,5.641-20.19,8.492c-6.116,2.613-12.292,5.226-18.408,7.838c-4.454,1.9-8.967,3.741-13.48,5.582
			c0,0.119,0,0.238,0,0.297c5.582,1.841,112.291,44.24,117.933,46.615l27.019-8.789C334.321,222.044,332.54,216.343,331.233,212.305
			z"/>
		<path class="st3" d="M191.21,189.74c4.513-1.841,8.967-3.682,13.48-5.582c6.116-2.613,12.292-5.226,18.408-7.838
			c6.71-2.85,13.48-5.641,20.19-8.492c6.116-2.613,12.292-5.226,18.408-7.838c6.888-2.91,13.836-5.879,20.784-8.789
			c6.235-2.613,12.47-5.226,18.705-7.957c2.375-1.009,4.81-1.841,7.066-3.147c-38.539-0.059-77.018-0.059-115.557-0.119
			c-1.069,0-1.425,0.119-1.425,1.366C191.27,157.377,191.27,173.588,191.21,189.74z"/>
		<path class="st39" d="M286.875,227.091c-7.185-2.85-14.311-5.76-21.496-8.67c-11.283-4.513-22.625-9.026-33.907-13.539
			c-9.976-3.979-19.952-7.957-29.929-11.995c-3.028-1.247-6.176-2.197-9.026-3.8c-0.534-0.119-0.772,0.059-0.653,0.653
			c3.682,9.204,6.413,18.765,9.62,28.147c4.572,13.361,8.967,26.781,13.48,40.142c0.772,2.257,1.722,5.166,2.791,8.254
			l92.339-29.929C302.374,233.267,294.595,230.179,286.875,227.091z"/>
		<path class="st3" d="M214.963,258.029c-4.513-13.361-8.907-26.781-13.48-40.142c-3.207-9.382-5.938-18.943-9.62-28.147
			c0,28.325-0.059,56.65-0.119,84.976l25.95-8.432C216.804,263.492,215.854,260.761,214.963,258.029z"/>
		<path class="st40" d="M212.647,249.835c-2.85-8.848-5.76-17.636-8.61-26.484c-3.207-9.917-6.413-19.774-9.62-29.691
			c-0.475-1.425-1.128-2.732-1.247-4.216c-0.653,0.297-0.297,0.891-0.297,1.306c-0.059,15.439-0.059,30.879-0.059,46.259
			c0.594,0.416,0.297,0.95,0.297,1.485c0,11.936,0,23.872-0.059,35.807l24.881-8.076
			C216.21,260.761,214.429,255.298,212.647,249.835z"/>
		<path class="st3" d="M193.111,238.433c0-0.475,0.238-1.069-0.297-1.485c0,12.47,0,24.94-0.059,37.411l0.297-0.119
			C193.051,262.305,193.111,250.369,193.111,238.433z"/>
		<path class="st41" d="M193.051,211.177c-0.178-7.482-0.059-14.964-0.238-22.387c-0.238,0-0.416,0-0.653,0
			c-4.335,2.494-8.907,4.572-13.42,6.829c-14.489,7.185-28.978,14.37-43.527,21.556c-3.088,1.544-6.235,2.91-9.323,4.335
			c0,0.119,0,0.238,0,0.297c1.544,1.306,2.553,3.088,3.741,4.691c6.829,9.085,13.598,18.23,20.368,27.434
			c6.829,9.204,13.598,18.527,20.427,27.731l23.218-7.542C193.526,249.597,193.229,220.975,193.051,211.177z"/>
		<path class="st3" d="M150.118,253.872c-6.77-9.145-13.539-18.29-20.368-27.434c-1.188-1.603-2.197-3.385-3.741-4.691
			c0,24.762-0.059,49.525-0.059,74.287l44.596-14.489C163.657,272.34,156.888,263.077,150.118,253.872z"/>
		<path class="st3" d="M125.95,221.45c3.088-1.425,6.235-2.85,9.323-4.335c14.489-7.185,29.038-14.37,43.527-21.556
			c4.513-2.257,9.085-4.276,13.42-6.829c-21.615,0-43.23-0.059-64.786-0.119c-1.069,0-1.425,0.119-1.425,1.366
			C126.009,200.488,125.95,210.999,125.95,221.45z"/>
		<path class="st3" d="M194.12,223.766c0-1.128-0.238-1.306-1.306-1.306c-21.734,0-43.468,0-65.261-0.059
			c0.238,0.416,0.416,0.831,0.653,1.247l0,0c0.059,0.119,0.178,0.238,0.238,0.356c0,0.119,0,0.238,0,0.356
			c2.316,2.969,4.691,5.938,6.948,9.026c4.572,6.176,9.085,12.411,13.658,18.587c2.019,2.732,11.817,16.093,21.674,29.513
			l23.278-7.542C194.061,257.257,194.061,240.512,194.12,223.766z"/>
		<path class="st3" d="M146.852,282.97c-3.563-10.926-7.066-21.853-10.629-32.719c-2.138-6.591-4.335-13.183-6.354-19.834
			c-0.594-2.019-1.306-3.979-1.9-5.998c-0.059-0.119-0.059-0.178-0.059-0.297c-0.475-0.178-0.119-0.891-0.653-1.009
			c0,24.168-0.059,48.396-0.059,72.565l21.556-7.007C148.099,286.77,147.446,284.87,146.852,282.97z"/>
		<path class="st42" d="M161.46,268.777c-4.097-5.582-8.254-11.164-12.351-16.805c-4.572-6.176-9.085-12.411-13.658-18.587
			c-2.257-3.028-4.632-5.998-6.948-9.026c-0.178,0-0.356,0-0.534,0c0.653,2.019,1.306,3.979,1.9,5.998
			c2.019,6.651,4.216,13.242,6.354,19.834c3.504,10.926,7.066,21.853,10.629,32.719c0.594,1.9,1.247,3.8,1.841,5.701l22.09-7.185
			C167.695,277.269,164.548,272.993,161.46,268.777z"/>
		<polygon class="st42" points="128.206,223.706 128.206,223.706 128.266,223.706 		"/>
		<path class="st42" d="M127.969,224.36c0.178,0,0.356,0,0.534,0c0-0.119,0-0.238,0-0.356c-0.059-0.119-0.178-0.238-0.238-0.356
			c-0.119,0.119-0.238,0.238-0.356,0.356C127.909,224.181,127.909,224.241,127.969,224.36z"/>
		<path class="st42" d="M128.503,224.003c-0.059-0.119-0.178-0.238-0.238-0.356C128.325,223.825,128.384,223.944,128.503,224.003z"
			/>
		<path class="st3" d="M134.263,284.811c-0.356-3.029-0.653-6.116-1.009-9.145c-0.416-3.385-0.653-6.829-1.188-10.214
			c-0.356-2.197-0.416-4.394-0.713-6.591c-0.416-3.325-0.713-6.71-1.188-10.036c-0.475-3.207-0.594-6.413-1.069-9.62
			c-0.475-3.325-0.713-6.651-1.247-9.976c-0.238-1.485-0.713-3.147-0.178-4.81c0.653,0.178,0.713,0.653,0.831,1.069
			c5.819,17.636,11.639,35.214,17.399,52.85c1.128,3.385,2.257,6.77,3.325,10.154l18.705-6.057c0-19.655,0.059-39.311,0.119-58.966
			c0-1.128-0.238-1.306-1.306-1.306c-13.064,0.059-26.128,0-39.192,0c-0.475,0.594,1.247,1.544-0.297,1.9
			c0,23.872-0.059,47.743-0.059,71.615l8.076-2.613C134.916,290.274,134.619,287.542,134.263,284.811z"/>
		<path class="st2" d="M145.961,278.278c-5.819-17.636-17.815-55.522-18.408-56.829c0.297,4.929,5.285,50.831,5.701,54.216
			c0.356,3.028,0.653,6.116,1.009,9.145c0.297,2.732,0.653,5.463,1.009,8.195l14.014-4.572
			C148.159,285.048,147.09,281.663,145.961,278.278z"/>
		<path class="st3" d="M145.902,223.528c0-1.247-0.297-1.485-1.485-1.485c-5.523,0.059-11.045,0-16.508,0
			c-0.119,0.653,0.297,1.366-0.297,1.9c0,0.238,0,0.416,0,0.653c0.534,0.178,0.594,0.594,0.653,1.128
			c0.297,3.504,0.713,7.007,1.188,10.511c0.475,3.266,0.653,6.651,1.009,9.917c0.356,3.088,0.831,6.176,1.247,9.264
			c0.356,3.207,0.653,6.413,1.009,9.62c0.356,3.325,0.831,6.591,1.188,9.857c0.356,3.029,0.653,6.057,1.009,9.145
			c0.356,2.91,0.713,5.76,1.069,8.67l9.857-3.207C145.843,267.59,145.902,245.559,145.902,223.528z"/>
		<path class="st43" d="M130.463,246.272c-0.356-3.325-0.534-6.651-1.009-9.917c-0.475-3.504-0.95-7.007-1.188-10.511
			c-0.059-0.534-0.475-4.751-1.009-4.929c0,1.069,0.713,42.755,1.366,74.287l7.363-2.375
			C134.976,284.454,130.76,249.122,130.463,246.272z"/>
		<path class="st44" d="M127.197,220.44c-2.553,1.01-31.354,20.368-43.705,28.444c-7.066,4.632-14.133,9.145-21.199,13.777
			c-7.007,4.572-22.149,14.667-22.149,14.905c0.653,0.831,12.233,16.983,26.959,37.529l61.757-20.012
			C128.087,256.426,127.315,222.044,127.197,220.44z"/>
		<path class="st28" d="M40.44,277.625c-0.119,0-11.104,29.216-13.836,36.223c-1.603,4.157-4.276,10.748-6.591,16.568l20.487-6.651
			C40.44,308.326,40.44,292.946,40.44,277.625z"/>
		<path class="st45" d="M40.202,277.566c0,15.558-0.059,30.938-0.059,46.318l27.494-8.907
			C52.732,294.43,40.915,278.219,40.202,277.566z"/>
		<path class="st46" d="M536.042,115.928c0.059,2.078,1.96,30.997,2.969,46.199l8.017-2.613
			C542.217,139.325,536.754,116.641,536.042,115.928z"/>
		<path class="st47" d="M536.16,115.631c-0.713,0.178,3.8,19.24,5.463,25.772c1.544,6.116,3.147,12.233,4.691,18.349l7.185-2.316
			C545.899,138.731,536.398,115.512,536.16,115.631z"/>
	</g>
</g>
</svg>
