<?xml version="1.0" encoding="utf-8"?>
<!-- Generator: Adobe Illustrator 22.1.0, SVG Export Plug-In . SVG Version: 6.00 Build 0)  -->
<svg version="1.0" id="Layer_1" xmlns="http://www.w3.org/2000/svg" xmlns:xlink="http://www.w3.org/1999/xlink" x="0px" y="0px"
	 viewBox="0 0 55.504 55.825" style="enable-background:new 0 0 55.504 55.825;" xml:space="preserve">
<style type="text/css">
	.st0{fill:#405896;}
	.st1{fill:#5C73CC;}
</style>
<path id="XMLID_2_" class="st0" d="M27.752,1.695C12.427,1.695,0,14.119,0,29.446c0,12.261,7.952,22.662,18.979,26.332
	c1.387,0.257,1.896-0.602,1.896-1.335c0-0.661-0.026-2.847-0.038-5.166c-7.721,1.679-9.35-3.274-9.35-3.274
	c-1.263-3.208-3.081-4.06-3.081-4.06c-2.518-1.722,0.189-1.687,0.189-1.687c2.786,0.196,4.254,2.86,4.254,2.86
	c2.475,4.242,6.492,3.015,8.076,2.306c0.249-1.794,0.968-3.018,1.762-3.711c-6.164-0.701-12.644-3.081-12.644-13.714
	c0-3.03,1.084-5.505,2.86-7.448c-0.288-0.699-1.238-3.521,0.269-7.344c0,0,2.331-0.745,7.633,2.845
	c2.213-0.616,4.587-0.924,6.946-0.935c2.358,0.011,4.735,0.319,6.952,0.934c5.297-3.591,7.624-2.845,7.624-2.845
	c1.51,3.822,0.561,6.645,0.273,7.344c1.78,1.943,2.856,4.419,2.856,7.448c0,10.659-6.492,13.005-12.672,13.692
	c0.996,0.861,1.882,2.55,1.882,5.138c0,3.713-0.032,6.702-0.032,7.615c0,0.739,0.5,1.604,1.906,1.331
	C47.563,52.1,55.504,41.702,55.504,29.445C55.504,14.119,43.079,1.695,27.752,1.695z M9.786,41.206
	c-0.065,0.138,0.047,0.326,0.249,0.417c0.198,0.095,0.415,0.053,0.476-0.085c0.069-0.138-0.045-0.328-0.247-0.419
	C10.063,41.025,9.846,41.064,9.786,41.206z M10.987,42.087c-0.134,0.124-0.101,0.383,0.081,0.577
	c0.176,0.194,0.434,0.251,0.567,0.128c0.138-0.124,0.103-0.381-0.079-0.577C11.375,42.022,11.123,41.964,10.987,42.087z
	 M12.113,43.489c-0.174,0.119-0.174,0.415-0.004,0.661c0.172,0.247,0.45,0.358,0.62,0.239c0.173-0.121,0.173-0.417,0.004-0.667
	C12.56,43.478,12.285,43.371,12.113,43.489z M13.357,45.119c-0.152,0.168-0.085,0.486,0.158,0.709
	c0.237,0.229,0.561,0.274,0.713,0.106c0.162-0.166,0.089-0.486-0.152-0.709C13.838,44.998,13.512,44.951,13.357,45.119z
	 M15.147,46.485c-0.063,0.219,0.142,0.474,0.456,0.569c0.314,0.092,0.626-0.006,0.693-0.223c0.065-0.221-0.141-0.474-0.454-0.568
	C15.526,46.163,15.212,46.267,15.147,46.485z M17.375,47.017c0.003,0.225,0.273,0.411,0.604,0.403
	c0.33-0.004,0.597-0.194,0.589-0.423c0-0.227-0.271-0.411-0.601-0.405C17.636,46.598,17.375,46.786,17.375,47.017z M20.017,46.333
	c-0.322,0.059-0.555,0.289-0.516,0.518c0.041,0.221,0.339,0.359,0.661,0.3c0.327-0.061,0.557-0.29,0.518-0.513
	C20.639,46.41,20.346,46.276,20.017,46.333z"/>
<path id="XMLID_4_" class="st1" d="M27.752,0C12.427,0,0,12.424,0,27.75c0,12.261,7.952,22.662,18.979,26.332
	c1.387,0.257,1.896-0.602,1.896-1.335c0-0.661-0.026-2.847-0.038-5.166c-7.721,1.679-9.35-3.274-9.35-3.274
	c-1.263-3.208-3.081-4.06-3.081-4.06c-2.518-1.722,0.189-1.687,0.189-1.687c2.786,0.196,4.254,2.86,4.254,2.86
	c2.475,4.242,6.492,3.015,8.076,2.306c0.249-1.794,0.968-3.018,1.762-3.711c-6.164-0.701-12.644-3.081-12.644-13.714
	c0-3.03,1.084-5.505,2.86-7.448c-0.288-0.699-1.238-3.521,0.269-7.344c0,0,2.331-0.745,7.633,2.845
	c2.213-0.616,4.587-0.924,6.946-0.935c2.358,0.011,4.735,0.319,6.952,0.934c5.297-3.591,7.624-2.845,7.624-2.845
	c1.51,3.822,0.561,6.645,0.273,7.344c1.78,1.943,2.856,4.419,2.856,7.448c0,10.659-6.492,13.005-12.672,13.692
	c0.996,0.861,1.882,2.55,1.882,5.138c0,3.713-0.032,6.702-0.032,7.615c0,0.739,0.5,1.604,1.906,1.331
	c11.021-3.674,18.963-14.071,18.963-26.329C55.504,12.424,43.079,0,27.752,0z M9.786,39.511c-0.065,0.138,0.047,0.326,0.249,0.417
	c0.198,0.095,0.415,0.053,0.476-0.085c0.069-0.138-0.045-0.328-0.247-0.419C10.063,39.329,9.846,39.369,9.786,39.511z
	 M10.987,40.392c-0.134,0.124-0.101,0.383,0.081,0.577c0.176,0.194,0.434,0.251,0.567,0.128c0.138-0.124,0.103-0.381-0.079-0.577
	C11.375,40.326,11.123,40.269,10.987,40.392z M12.113,41.794c-0.174,0.119-0.174,0.415-0.004,0.661
	c0.172,0.247,0.45,0.358,0.62,0.239c0.173-0.121,0.173-0.417,0.004-0.667C12.56,41.782,12.285,41.676,12.113,41.794z M13.357,43.424
	c-0.152,0.168-0.085,0.486,0.158,0.709c0.237,0.229,0.561,0.274,0.713,0.106c0.162-0.166,0.089-0.486-0.152-0.709
	C13.838,43.303,13.512,43.256,13.357,43.424z M15.147,44.79c-0.063,0.219,0.142,0.474,0.456,0.569
	c0.314,0.092,0.626-0.006,0.693-0.223c0.065-0.221-0.141-0.474-0.454-0.568C15.526,44.468,15.212,44.571,15.147,44.79z
	 M17.375,45.321c0.003,0.225,0.273,0.411,0.604,0.403c0.33-0.004,0.597-0.194,0.589-0.423c0-0.227-0.271-0.411-0.601-0.405
	C17.636,44.903,17.375,45.09,17.375,45.321z M20.017,44.638c-0.322,0.059-0.555,0.289-0.516,0.518
	c0.041,0.221,0.339,0.359,0.661,0.3c0.327-0.061,0.557-0.29,0.518-0.513C20.639,44.715,20.346,44.581,20.017,44.638z"/>
</svg>
