<?xml version="1.0" encoding="utf-8"?>
<!-- Generator: Adobe Illustrator 22.1.0, SVG Export Plug-In . SVG Version: 6.00 Build 0)  -->
<svg version="1.1" id="Layer_1" xmlns="http://www.w3.org/2000/svg" xmlns:xlink="http://www.w3.org/1999/xlink" x="0px" y="0px"
	 viewBox="0 0 64 80" style="enable-background:new 0 0 64 80;" xml:space="preserve">
<style type="text/css">
	.st0{fill:#020202;}
</style>
<g id="_x38_">
	<g>
		<path class="st0" d="M48.5,37.5c-1-1.1-3.8-4.2-3.8-4.2c-1.5-1.6-2.3-1.8-2.8-4.3c-0.2-0.8-0.6-2.7-1-4.6c0,1.6-0.1,3.2-0.1,4.8
			l-0.1,7.2c0,0.9,0,1.9-0.1,2.8c1.2,1.4,2.7,3.2,3.1,3.5c1.2,0.9,3.9,1,5-0.7C49.5,40.7,49.5,38.8,48.5,37.5z"/>
		<path class="st0" d="M39.8,29.2c0.1-2.9,0.2-5.7,0.3-8.6c-0.2-0.8-0.4-1.4-0.5-1.6l0,0c-0.9-2.1-3.8-3.5-4.6-3.5c-1,0-4.9,0-6.3,0
			c-1,0-1.9,0.6-2.6,1.5c-0.7,0.8-6.1,8.7-7,9.9s-1.4,2.9-1.4,3.5c-0.1,0.6-0.9,7.3-0.9,9s1.1,3.8,3.7,3.8s3.5-2.8,3.5-3.6
			c0.2-2.5,0.5-5.6,0.8-7.9c0.1-0.8,0.6-1.5,0.8-1.8c0.3-0.3,1-1,1-1l-0.3,9.8c0,0,0,0.5-0.1,1.3c0.6,2,3.7,7.4,7.8,13.2
			c0,0,0,0,0-0.1c0.9,1.3,1.5,2.3,1.7,2.6c0.7,1,1.1,1.5,1.2,2.2C37,58.7,38,71.1,38.1,74c0.2,3.3,2.9,5,5.8,4.6
			c3-0.5,3.8-3.8,3.4-6.5c-0.2-1.5-1.1-10.5-1.3-12.9c-0.2-2.4,0-3.8-1.4-6.2c-0.5-0.8-3.9-6-4.5-6.9c-0.6-0.9-0.5-1.5-0.5-2.3
			c0-0.3,0.2-7,0.3-7.5L39.8,29.2z"/>
		<path class="st0" d="M25.9,42.3c-0.2,2.7-0.5,6.4-0.6,8.7c-0.1,0.9-0.3,2.7-1.2,4.6c-0.8,1.5-7.9,15.8-8.4,16.8
			c-1.9,3.8-0.4,7.6,3,7.6c2.5,0,3.8-1.4,4.6-3.2c0.5-1.1,9.5-18.9,9.9-19.6c0.3-0.6,0.5-1.2,0.6-1.8c-0.1-0.4-0.4-0.9-0.7-1.5
			C31,51.2,27.5,45.9,25.9,42.3z"/>
	</g>
	<circle class="st0" cx="35.8" cy="6.4" r="6.4"/>
</g>
</svg>
