<?xml version="1.0" encoding="utf-8"?>
<!-- Generator: Adobe Illustrator 22.1.0, SVG Export Plug-In . SVG Version: 6.00 Build 0)  -->
<svg version="1.1" id="Layer_1" xmlns="http://www.w3.org/2000/svg" xmlns:xlink="http://www.w3.org/1999/xlink" x="0px" y="0px"
	 viewBox="0 0 64 80" style="enable-background:new 0 0 64 80;" xml:space="preserve">
<style type="text/css">
	.st0{fill:#020202;}
</style>
<g id="_x35_">
	<circle class="st0" cx="39" cy="6.1" r="6.1"/>
	<g>
		<path class="st0" d="M27.4,42c0.1-5.4,0.9-15.7,1.4-22.1c0.1-1.5,0.2-2.8,0.3-3.8c-0.3,0.4-0.5,0.7-0.6,1
			c-0.3,0.6-3.8,8.1-4.4,9.4s-0.9,3-0.9,3.3s0,5.5,0,8.9C23.3,41.4,26.3,41.9,27.4,42z"/>
		<path class="st0" d="M49,74.3c-0.2-0.8-2.9-14.8-3.3-16.4c-0.3-1.6-1-4.5-1.3-5c-0.3-0.6-3.3-7.9-3.5-8.4c-0.1-0.3-0.4-1-0.4-1.7
			c-0.4-0.4-0.7-0.9-1-1.4c-0.3-0.5-0.6-1-0.9-1.4c-1.1-1.9-2.2-3.9-3.2-5.9c-0.3-0.5-0.5-1.1-0.6-1.7c-0.1-0.6-0.1-1.2-0.1-1.8
			l0.3-3.3c0.2-2.2,0.8-6.7,0.8-6.7c0,2.2-0.1,4.5-0.2,6.7l-0.1,3.3c0,0.5,0,1.1,0.1,1.6c0.1,0.2,0.1,0.5,0.2,0.7s0.2,0.4,0.4,0.7
			c1.1,2,3.1,5.3,4.4,7.5c0.9,1.1,2.2,1.3,3.1,1.2c2.1-0.3,3.2-3,2-5.2c-0.2-0.5-2.5-4.3-3.4-5.7c-0.3-0.5-0.7-1.4-0.6-2.1
			c0.1-0.7,0.3-7.8,0.5-10.1c0.2-2.3-3.2-4.1-4-4.2c-0.8-0.1-3.8-0.6-5.6-0.5c-1.3,0.1-2.2,0.5-2.7,0.9c-0.1,1-0.2,2.5-0.3,4.2
			c-0.5,6.5-1.3,16.7-1.4,22.1h0.1c0,0,0.5,6.4,0.5,7.4c0,1.1-0.5,1.8-0.9,2.5S17.3,67.9,16.8,68.5s-1.8,1.6-1.8,4s3,4.2,4.3,4.2
			c1.3,0,2.3-0.4,3.1-1.4c0.8-1,11.5-15.2,12.2-16.2c0.7-1,1.8-2.8,1.9-3.2c0.1-0.2,0.4-0.7,0.5-1.5c0-0.3,0.6-6.8,0.7-7.9h0.2
			c0,1.1-0.1,2.1-0.1,3.2c0,1.1-0.1,2.1-0.2,3.2l-0.1,1.6c0,0.9-0.3,1.9-0.4,2.3c-0.1,0.4-0.2,0.7-0.1,1.1c0.5,2.7,3,16.2,3.4,18
			c0.5,2,3,4,5.3,4S49.2,75.1,49,74.3z"/>
	</g>
</g>
</svg>
