<?xml version="1.0" encoding="utf-8"?>
<!-- Generator: Adobe Illustrator 22.1.0, SVG Export Plug-In . SVG Version: 6.00 Build 0)  -->
<svg version="1.1" id="Layer_1" xmlns="http://www.w3.org/2000/svg" xmlns:xlink="http://www.w3.org/1999/xlink" x="0px" y="0px"
	 viewBox="0 0 64 80" style="enable-background:new 0 0 64 80;" xml:space="preserve">
<style type="text/css">
	.st0{fill:#020202;}
</style>
<g id="_x31_2">
	<circle class="st0" cx="36.5" cy="6.1" r="6.1"/>
	<path class="st0" d="M28.8,53.5c-0.6,1.1-6.5,13.7-6.9,14.4c-1.5,3.2,0.2,6.8,3.4,6.8c2.4,0,4.7-2.4,4.7-4.5c0-2.7,0-11.9,0-12.7
		S28.8,53.5,28.8,53.5z"/>
	<path class="st0" d="M39.8,20.6c0.6-6.4-5.6-6.2-9.4-6.2c-2,0-3,1.6-3.2,2.4c-0.2,0.9-1.7,9.8-1.7,10.1s0,0.9,0,1.6
		s0.2,1.9,0.4,2.7c0.1,0.2,0.2,0.4,0.2,0.6c0.3,0.8,0.6,1.6,0.9,2.4c0.4,0.8,0.7,1.6,1.1,2.4c0.3,0.8,0.7,1.5,1.2,2.2s1,1.3,1.7,1.7
		c0.3,0.2,0.7,0.3,1.1,0.2c0.4,0,0.8-0.1,1.2-0.2c0.8-0.2,1.4-0.7,1.7-1.4s0.4-1.5,0.3-2.3s-0.3-1.6-0.6-2.4c-0.6-1.6-1.1-3.3-1.6-5
		c-0.1-0.4-0.2-0.8-0.3-1.3V28v-0.1v-0.1v-0.3l0.1-0.6l0.3-2.6c0.2-1.7,0.5-3.4,0.7-5.1c-0.1,1.7-0.2,3.4-0.4,5.2l-0.1,2.5l-0.1,0.6
		v0.3V28l0,0v0.1c0.1,0.4,0.2,0.8,0.3,1.2c0.5,1.6,1.1,3.3,1.7,4.9c0.3,0.8,0.6,1.7,0.7,2.6c0.1,0.9,0,1.9-0.4,2.7
		c-0.4,0.9-1.3,1.6-2.2,1.8c-0.5,0.1-0.9,0.2-1.4,0.2s-1-0.1-1.4-0.3c-0.9-0.5-1.4-1.2-1.9-2s-0.9-1.6-1.2-2.4
		c-0.3-0.8-0.6-1.6-0.9-2.5c-0.2-0.7-0.4-1.4-0.7-2.2c0,1.9,0,6.1,0,7c0,1.2,0.4,1.8,0.6,2.4s4.1,13.5,4.2,14
		c0.2,0.6,0.5,1.6,0.5,2.3s0,16.2,0,18s2.2,4.2,4.4,4.2s4-3.1,4-3.8c0-0.8,0-17.6,0-18.6c0-1.1,0-1.9-0.2-2.5
		c-0.2-0.7-1.3-7.5-1.5-8.8c-0.2-1.3-0.4-2.5-0.3-3.1C37.7,42.6,39.7,22.4,39.8,20.6z"/>
</g>
</svg>
