<?xml version="1.0" encoding="utf-8"?>
<!-- Generator: Adobe Illustrator 22.1.0, SVG Export Plug-In . SVG Version: 6.00 Build 0)  -->
<svg version="1.1" id="Layer_1" xmlns="http://www.w3.org/2000/svg" xmlns:xlink="http://www.w3.org/1999/xlink" x="0px" y="0px"
	 viewBox="0 0 64 80" style="enable-background:new 0 0 64 80;" xml:space="preserve">
<style type="text/css">
	.st0{fill:#020202;}
</style>
<g id="_x34_">
	<circle class="st0" cx="37.8" cy="6.4" r="6.4"/>
	<g>
		<path class="st0" d="M20.7,42.4c1.5,0,3.3-1.1,3.8-3.8c0.2-1.3,0.5-4.5,1.3-6.5c0.4-1,0.8-1.9,0.9-2.2l0.1-0.1l1-13.2
			c-0.5,0.5-1.1,1-1.7,1.7c-0.5,0.6-5.5,7.4-6.2,8.4c-0.7,0.9-1.5,4.4-1.7,5.1C18,32.5,17,35.4,17,38.1S18.8,42.4,20.7,42.4z"/>
		<path class="st0" d="M53.4,73.8c-0.2-0.9-5.1-16.8-5.7-18.7c-0.5-2-2-3.9-2.6-4.7s-5.2-7-5.2-7l-0.3-2.9c0,0-3.9-5.3-4.1-5.5
			c-0.2-0.2-0.3-1.2-0.3-1.8s-0.3-10.5-0.3-10.5s1.1,9.1,1.2,10.2c0.1,1.2,0.8,2.2,1.2,2.7s4.2,5.4,5,6.3c0.8,0.9,1.9,2.1,4,2.1
			c2.4,0,4.3-3.9,2.3-5.9c-0.6-0.6-4.7-5.1-5.2-5.8s-1.1-1.9-1.2-2.9c-0.4-3.7-0.5-5.7-0.9-9.8c-0.3-2.9-3.4-4.1-4.6-4.1
			c-0.7,0-4-0.3-5.3-0.3c-1.2,0-2,0.2-2.9,0.7l-1.3,17.3l0,0c-0.4,5.6-1.3,16.9-1.3,17.6c-0.1,0.8-0.2,1.3-0.6,1.7
			C25,52.9,13.5,65.9,11.4,68.3c-2.2,2.5,0.1,6.8,2.3,7c1.8,0.2,3.6-0.1,4.6-1.3c0.7-0.8,14.1-16.1,14.9-17c1-1.4,1.5-2.5,1.6-3.7
			c0.1-1.3,0.6-10.2,0.6-10.2s0.4,6.8,0.5,7.7c0.2,1.6,0.6,2.7,1.1,3.5c0.8,1.2,1.9,2.8,2.4,3.6c0.2,0.7,4.8,16.1,5.5,18.2
			c1,3.3,2.3,4,5.3,3.7C53.2,79.6,54,75.8,53.4,73.8z"/>
	</g>
</g>
</svg>
