<?xml version="1.0" encoding="utf-8"?>
<!-- Generator: Adobe Illustrator 22.1.0, SVG Export Plug-In . SVG Version: 6.00 Build 0)  -->
<svg version="1.1" id="Layer_1" xmlns="http://www.w3.org/2000/svg" xmlns:xlink="http://www.w3.org/1999/xlink" x="0px" y="0px"
	 viewBox="0 0 762.3 669.4" style="enable-background:new 0 0 762.3 669.4;" xml:space="preserve">
<style type="text/css">
	.st0{fill:#020322;}
	.st1{fill:#020320;}
	.st2{fill:#020232;}
	.st3{fill:#020321;}
	.st4{fill:#020324;}
	.st5{fill:url(#SVGID_1_);}
	.st6{fill:url(#SVGID_2_);}
	.st7{fill:url(#SVGID_3_);}
	.st8{fill:#020202;}
	.st9{fill:#02031D;}
	.st10{opacity:0.78;fill:url(#dark_middle_1_);}
	.st11{opacity:0.62;fill:url(#left_highlight_2_);}
	.st12{fill:url(#very_right_1_);}
	.st13{fill:url(#dark_2_);}
	.st14{fill:url(#dark_3_);}
	.st15{fill:url(#dark_6_);}
	.st16{fill:url(#dark_7_);}
	.st17{fill:url(#original_roof_1_);}
	.st18{fill:url(#SVGID_4_);}
	.st19{fill:url(#SVGID_5_);}
	.st20{fill:none;stroke:#070638;stroke-miterlimit:10;}
	.st21{opacity:0.71;fill:url(#SVGID_6_);}
	.st22{opacity:0.31;fill:#3A3A84;enable-background:new    ;}
	.st23{fill:url(#right_1_);}
	.st24{fill:url(#SVGID_7_);}
	.st25{fill:url(#right_light_1_);}
	.st26{fill:url(#SVGID_8_);}
	.st27{fill:url(#SVGID_9_);}
	.st28{fill:url(#SVGID_10_);}
	.st29{fill:url(#SVGID_11_);}
</style>
<g id="grass">
	<path class="st0" d="M134.5,438.6c2.1,1.2,3.5-0.7,4.2-2.4c0.7-1.8,1.2-3.8,1.6-5.8c0.8-4,1.1-8,1.1-12.3c0.8,2,1.2,4.1,1.3,6.2
		c0.2,2.1,0,4.3-0.4,6.4c-0.4,2.1-1,4.2-2.2,6.1c-0.7,0.9-1.3,1.9-2.4,2.4C136.5,439.9,135.2,439.4,134.5,438.6z"/>
	<path class="st1" d="M419.2,287c-0.8-1.5-2.4-0.9-3.5-0.1s-2.2,1.9-3.1,2.9c-1.9,2.2-3.5,4.5-5,7.2c0.3-1.5,0.8-2.9,1.5-4.2
		c0.7-1.3,1.6-2.6,2.6-3.7s2.1-2.2,3.5-2.9c0.7-0.3,1.4-0.7,2.3-0.6C418.5,285.6,419.1,286.3,419.2,287z"/>
	<path class="st2" d="M408.4,651.5c-2.3-0.8-3.4,0.9-4,2.4c-0.5,1.6-0.9,3.3-1,5c-0.4,3.4-0.3,6.9,0.1,10.5c-1-1.6-1.6-3.4-2-5.2
		s-0.4-3.6-0.2-5.4c0.2-1.8,0.6-3.7,1.6-5.4c0.6-0.8,1.1-1.7,2.2-2.3C406.2,650.6,407.7,650.9,408.4,651.5z"/>
	<path class="st1" d="M426.5,289.2c0.5-0.5,1.5-0.7,2.2-0.2s1.1,1.2,1.4,1.9c0.6,1.4,0.9,3,1,4.5s0,3-0.2,4.5
		c-0.3,1.5-0.7,2.9-1.4,4.3c0.4-3,0.6-5.8,0.4-8.7c-0.1-1.4-0.3-2.9-0.7-4.2C429,289.9,428.1,288.5,426.5,289.2z"/>
	<path class="st1" d="M428.6,289.2c0.5-0.5,1.5-0.7,2.2-0.2s1.1,1.2,1.4,1.9c0.6,1.4,0.9,3,1,4.5s0,3-0.2,4.5
		c-0.3,1.5-0.7,2.9-1.4,4.3c0.4-3,0.6-5.8,0.4-8.7c-0.1-1.4-0.3-2.9-0.7-4.2C431,289.9,430.1,288.5,428.6,289.2z"/>
	<path class="st3" d="M739.9,409.1c-0.6,0.5-1.3,1-2.2,1.2s-1.9,0.1-2.8-0.2c-1.7-0.7-2.8-2-3.8-3.2c-1.9-2.6-3-5.4-3.8-8.3
		s-1.2-5.8-1.2-8.8c0-2.9,0.3-5.9,1.1-8.7c-0.3,5.8,0.3,11.6,1.8,17.1c0.7,2.8,1.7,5.5,3.2,8.1c0.8,1.2,1.7,2.4,3.1,3.2
		c0.7,0.4,1.4,0.6,2.3,0.5C738.4,409.8,739.2,409.5,739.9,409.1z"/>
	<path class="st3" d="M726.9,379.6c0.2-0.7,0.9-1.4,1.8-1.3c0.9,0,1.6,0.5,2.2,0.9c1.3,0.9,2.3,2,3.2,3.3c0.9,1.2,1.6,2.6,2.2,4
		c0.6,1.4,1,2.9,1.1,4.4c-1.2-2.7-2.6-5.3-4.3-7.6c-0.8-1.2-1.7-2.3-2.8-3.2C729.4,378.9,727.9,378.2,726.9,379.6z"/>
	<path class="st3" d="M729.1,374.2c0.8-0.7,2.2-0.7,3.1,0.1c0.9,0.7,1.5,1.7,1.9,2.7c0.9,2,1.3,4.1,1.5,6.3
		c0.3,4.3-0.1,8.7-1.9,12.5c0.8-4.1,1-8.3,0.7-12.4c-0.2-2.1-0.5-4.1-1.2-6c-0.3-0.9-0.8-1.9-1.5-2.6
		C731.2,374,730.1,373.9,729.1,374.2z"/>
	<path class="st0" d="M142,447.6c-0.2,0.4-0.4,0.7-0.7,1.1c-0.1,0.2-0.3,0.3-0.6,0.4c-0.4,0.1-0.9-0.3-1-0.5c-0.4-1-0.2-1.8-0.2-2.7
		c0.1-1.7,0.6-3.2,1-4.7c0.5-1.5,1.1-3,1.9-4.4s1.6-2.8,2.7-4c-0.3,1.6-0.8,3.1-1.2,4.6c-0.4,1.5-0.9,3-1.4,4.4l-1.4,4.4
		c-0.2,0.7-0.4,1.5-0.4,2c0,0.1-0.1,0.1-0.1,0.1c0.1,0,0.3,0,0.4-0.1C141.3,448,141.6,447.8,142,447.6z"/>
	<path class="st0" d="M143.1,427.6c0.2-0.4,0.4-0.7,0.7-1c0.2-0.2,0.3-0.3,0.7-0.4c0.4-0.1,0.9,0.3,0.9,0.6c0.3,1.1,0.1,1.8,0,2.7
		c-0.2,1.6-0.8,3.2-1.4,4.6c-0.6,1.5-1.3,2.9-2.2,4.2c-0.9,1.3-1.8,2.6-3,3.8c0.4-1.6,1-3,1.6-4.5c0.5-1.5,1.2-2.9,1.7-4.3l1.8-4.3
		c0.3-0.7,0.5-1.5,0.5-2c0-0.1,0.1,0,0.1-0.1c-0.1,0-0.3,0-0.4,0.1C143.8,427.2,143.5,427.4,143.1,427.6z"/>
	<path class="st3" d="M728.2,409.4c-0.1,0.4-0.1,0.8-0.3,1.2c-0.1,0.2-0.2,0.4-0.5,0.7c-0.3,0.3-0.9,0.3-1.1,0.1
		c-0.7-0.6-0.9-1.3-1.1-1.9c-0.5-1.4-0.6-2.8-0.7-4.3c0-2.9,0.3-6,1.4-9.1c0.3,2.9,0.3,5.7,0.5,8.6c0,1.4,0.1,2.8,0.2,4.2
		c0,0.7,0.2,1.4,0.4,1.8c0.1,0.1,0,0.1,0.1,0.1s0.3-0.2,0.4-0.3C727.7,410.1,728,409.8,728.2,409.4z"/>
	<path class="st1" d="M416.4,286.6c0.2-0.2,0.3-0.5,0.5-0.7c0.1-0.1,0.2-0.2,0.5-0.3c0.3-0.1,0.5,0.2,0.6,0.4c0.2,0.7,0,1.3,0,1.8
		c-0.2,1.1-0.6,2.2-1,3.3c-0.9,2.1-2,4-3.6,5.7c0.7-2.2,1.6-4.2,2.5-6.2c0.4-1,0.8-2,1.2-3c0.2-0.5,0.4-1.1,0.4-1.4
		c0-0.1,0-0.1,0-0.1c-0.1,0-0.2,0-0.3,0.1C416.9,286.3,416.7,286.5,416.4,286.6z"/>
	<path class="st1" d="M437.3,297.2c0.2-0.2,0.3-0.5,0.5-0.7c0.1-0.1,0.2-0.2,0.5-0.3c0.3-0.1,0.5,0.2,0.6,0.4c0.2,0.7,0,1.3,0,1.8
		c-0.2,1.1-0.6,2.2-1,3.3c-0.9,2.1-2,4-3.6,5.7c0.7-2.2,1.6-4.2,2.5-6.2c0.4-1,0.8-2,1.2-3c0.2-0.5,0.4-1.1,0.4-1.4
		c0-0.1,0-0.1,0-0.1c-0.1,0-0.2,0-0.3,0.1C437.7,296.9,437.5,297,437.3,297.2z"/>
	<path class="st1" d="M425.3,288.2c0.5-0.5,1.5-0.7,2.2-0.2s1.1,1.2,1.4,1.9c0.6,1.4,0.9,3,1,4.5s0,3-0.2,4.5
		c-0.3,1.5-0.7,3-1.4,4.3c0.4-3,0.6-5.8,0.4-8.7c-0.1-1.4-0.3-2.9-0.7-4.2C427.7,288.9,426.8,287.5,425.3,288.2z"/>
	<path class="st1" d="M424.4,290.6c0.5-0.5,1.5-0.7,2.2-0.2s1.1,1.2,1.4,1.9c0.6,1.4,0.9,3,1,4.5s0,3-0.2,4.5
		c-0.3,1.5-0.7,2.9-1.4,4.3c0.4-3,0.6-5.8,0.4-8.7c-0.1-1.4-0.3-2.9-0.7-4.2C426.9,291.3,426,289.9,424.4,290.6z"/>
	<path class="st1" d="M422.4,291.2c0.5-0.5,1.5-0.7,2.2-0.2s1.1,1.2,1.4,1.9c0.6,1.4,0.9,3,1,4.5s0,3-0.2,4.5
		c-0.3,1.5-0.7,2.9-1.4,4.3c0.4-3,0.6-5.8,0.4-8.7c-0.1-1.4-0.3-2.9-0.7-4.2C424.8,292,423.9,290.5,422.4,291.2z"/>
	<path class="st4" d="M629.7,478.5c1.3-0.9,1.8-2.2,2-3.5s0.2-2.6-0.1-3.9c-0.4-2.6-1.4-5.2-2.6-7.7c0.9,1.2,1.7,2.4,2.3,3.7
		s1,2.6,1.2,4s0.2,2.7-0.1,4.1c-0.2,0.7-0.5,1.3-0.9,1.9C631.1,477.6,630.5,478.2,629.7,478.5z"/>
	<path class="st4" d="M639.8,478.5c1.3-0.9,1.8-2.2,2-3.5s0.2-2.6-0.1-3.9c-0.4-2.6-1.4-5.2-2.6-7.7c0.9,1.2,1.7,2.4,2.3,3.7
		s1,2.6,1.2,4s0.2,2.7-0.1,4.1c-0.2,0.7-0.5,1.3-0.9,1.9C641.1,477.6,640.5,478.2,639.8,478.5z"/>
	<path class="st4" d="M630.7,483.4c1.4,0.3,2.7,0.1,3.2-0.6c0.6-0.7,0.9-1.6,1-2.6c0.3-1.9,0.2-3.9,0-5.9c-0.4-4-1.3-7.9-2.4-12.1
		c3.4,3.4,5.1,7.7,5.6,11.9c0.2,2.1,0.1,4.3-0.8,6.5c-0.4,1.1-1.1,2.2-2.4,3c-0.7,0.4-1.6,0.6-2.4,0.5
		C631.8,484.1,631.2,483.7,630.7,483.4z"/>
	
		<linearGradient id="SVGID_1_" gradientUnits="userSpaceOnUse" x1="312.1638" y1="117.3315" x2="317.6306" y2="117.3315" gradientTransform="matrix(1 0 0 -1 0 672.2)">
		<stop  offset="0" style="stop-color:#000532"/>
		<stop  offset="0.1549" style="stop-color:#000529"/>
		<stop  offset="0.436" style="stop-color:#00051F"/>
		<stop  offset="0.7971" style="stop-color:#00051C"/>
	</linearGradient>
	<path class="st5" d="M317.6,545.8c-2.3-0.5-3.1,1.3-3.3,2.8c-0.2,1.6-0.2,3.2-0.1,4.9c0.3,3.3,1,7.5,2,10.9c-1.3-1.4-2.1-3-2.8-4.6
		c-0.7-1.7-1-4.4-1.2-6.1c-0.1-1.7-0.1-3.5,0.6-5.3c0.4-0.8,0.8-1.7,1.7-2.4C315.4,545.1,316.8,545.2,317.6,545.8z"/>
	
		<linearGradient id="SVGID_2_" gradientUnits="userSpaceOnUse" x1="308.5853" y1="119.2" x2="314.1106" y2="119.2" gradientTransform="matrix(1 0 0 -1 0 672.2)">
		<stop  offset="0" style="stop-color:#000532"/>
		<stop  offset="0.1549" style="stop-color:#000529"/>
		<stop  offset="0.436" style="stop-color:#00051F"/>
		<stop  offset="0.7971" style="stop-color:#00051C"/>
	</linearGradient>
	<path class="st6" d="M308.6,562.1c2.3,0.5,3.1-1.3,3.4-2.8c0.2-1.6,0.3-4.2,0.1-5.9c-0.2-3.3-0.9-6.5-1.9-9.9
		c1.2,1.4,2.1,3,2.7,4.7c0.7,1.7,1,3.4,1.2,5.1c0.1,1.7,0,4.5-0.6,6.3c-0.4,0.8-0.8,1.7-1.7,2.4
		C310.8,562.7,309.4,562.6,308.6,562.1z"/>
	<path class="st1" d="M762.3,352.8c-0.6,0.7-1.6,1-2.5,0.5s-1.4-1.3-1.9-2c-0.9-1.6-1.4-3.3-1.7-5s-0.4-3.5-0.3-5.2
		c0.1-1.7,0.4-3.5,1-5.1c-0.1,3.4,0,6.8,0.6,10c0.3,1.6,0.7,3.2,1.3,4.8C759.4,352.3,760.6,353.9,762.3,352.8z"/>
	<path class="st1" d="M754.3,358.6c0,0.3,0,0.7-0.1,1c0,0.2-0.1,0.3-0.3,0.5s-0.7,0.1-0.8,0c-0.6-0.6-0.9-1.2-1.2-1.8
		c-0.5-1.2-0.9-2.5-1.1-3.8c-0.5-2.6-0.7-5.2-0.3-7.8c0.7,2.5,1.1,5,1.6,7.5c0.2,1.2,0.5,2.5,0.8,3.7c0.1,0.6,0.3,1.2,0.6,1.6
		c0.1,0.1,0,0.1,0.1,0.1s0.2-0.1,0.2-0.3C754.1,359.2,754.2,358.9,754.3,358.6z"/>
	<path class="st2" d="M406.1,663.6c0.2,0.3,0.3,0.6,0.5,0.8c0.1,0.1,0.2,0.2,0.3,0.2s0,0,0.1-0.1c0.3-0.4,0.5-1.1,0.7-1.7
		c0.3-1.3,0.6-2.6,0.9-3.9c0.6-2.7,1-5.3,1.8-8c0.6,2.7,0.4,5.4-0.1,8.2c-0.3,1.4-0.7,2.7-1.3,4.1c-0.4,0.7-0.6,1.3-1.4,2
		c-0.2,0.2-0.7,0.3-1,0.1c-0.2-0.2-0.3-0.4-0.3-0.5C406.1,664.3,406.1,664,406.1,663.6z"/>
	<path class="st2" d="M415,662.7c0,0.3-0.1,0.7-0.2,1c-0.1,0.2-0.2,0.3-0.4,0.5c-0.3,0.2-0.8,0-1-0.2c-0.7-0.7-0.9-1.4-1.3-2.1
		c-0.6-1.4-0.8-2.8-1-4.1c-0.3-2.8-0.3-5.5,0.4-8.2c0.6,2.8,0.9,5.5,1.3,8.1c0.2,1.3,0.4,2.7,0.6,4c0.1,0.6,0.3,1.4,0.6,1.8
		c0.1,0.1,0,0.1,0.1,0.1s0.2-0.1,0.3-0.2C414.6,663.3,414.8,663,415,662.7z"/>
	<path class="st1" d="M757.4,355.3c0,0.3,0,0.7-0.1,1c0,0.2-0.1,0.4-0.3,0.6c-0.2,0.3-0.7,0.2-0.9,0.1c-0.7-0.5-1-1.1-1.4-1.7
		c-0.6-1.2-1.2-2.4-1.6-3.6c-0.5-1.2-1.1-2.4-1.2-3.8c-0.1-1.3,0-2.7,0.6-4h0.3c0.9,1.2,1.4,2.4,1.8,3.5c0.4,1.2,0.4,2.5,0.6,3.7
		c0.2,1.2,0.4,2.5,0.8,3.7c0.1,0.6,0.4,1.2,0.6,1.6c0.1,0.1-0.1,0.1,0,0.1c0,0,0.1-0.1,0.2-0.2c0.1-0.2,0.2-0.6,0.3-0.9L757.4,355.3
		z"/>
	<path class="st2" d="M393.7,660.9c1.2-1.4,1.5-3.1,1.6-4.7c0.1-1.7,0-3.4-0.2-5c-0.2-1.7-0.5-3.4-0.9-5.1l-1.2-5.2
		c1.1,1.4,2,3,2.6,4.7c0.7,1.7,1.1,3.5,1.4,5.3c0.2,1.8,0.2,3.7-0.3,5.5c-0.2,0.9-0.6,1.8-1,2.6
		C395.2,659.8,394.6,660.5,393.7,660.9z"/>
	<path class="st2" d="M392.1,654.9c1.2-1.4,1.5-3.1,1.6-4.7c0.1-1.7,0-3.4-0.2-5c-0.2-1.7-0.5-3.4-0.9-5.1l-1.2-5.2
		c1.1,1.4,2,3,2.6,4.7c0.7,1.7,1.1,3.5,1.4,5.3c0.2,1.8,0.2,3.7-0.3,5.5c-0.2,0.9-0.6,1.8-1,2.6
		C393.6,653.9,392.9,654.6,392.1,654.9z"/>
	
		<linearGradient id="SVGID_3_" gradientUnits="userSpaceOnUse" x1="674.3647" y1="224.6266" x2="692.4388" y2="224.6266" gradientTransform="matrix(1 0 0 -1 0 672.2)">
		<stop  offset="0" style="stop-color:#000532"/>
		<stop  offset="0.1549" style="stop-color:#000529"/>
		<stop  offset="0.436" style="stop-color:#00051F"/>
		<stop  offset="0.7971" style="stop-color:#00051C"/>
	</linearGradient>
	<path class="st7" d="M679.4,462.3c-0.5,0-1-0.3-1.4-0.6s-0.8-0.7-1.1-1.1c-0.7-0.8-1.2-1.6-1.7-2.5s-0.8-2-0.9-3.2
		c0-0.6,0.1-1.3,0.4-1.9c0.3-0.5,0.6-1,1.1-1.5c0.9-0.9,2.2-1.4,3.3-1.5c1.1-0.2,2.2-0.2,3.1-0.2c1.9,0,3.7,0,4.9-0.8
		c0.6-0.4,1.2-0.9,1.7-1.5s0.7-1.2,0.7-1.9c0.2-1.5-0.5-3.2-1.3-4.8c-0.9-1.6-1.9-3.2-3.2-4.6c-0.6-0.7-1.3-1.4-2-2
		c-0.4-0.3-0.8-0.6-1.2-0.8s-0.8-0.4-1.3-0.5c1-0.2,2,0.2,2.9,0.6c0.9,0.4,1.8,1,2.6,1.6c1.6,1.2,3.1,2.7,4.2,4.4
		c0.6,0.9,1.1,1.8,1.5,2.8s0.6,2.2,0.6,3.4s-0.4,2.5-1.2,3.5c-0.7,0.9-1.5,1.8-2.6,2.4c-1.1,0.6-2.2,0.9-3.3,1s-2.2,0.1-3.1,0
		c-2-0.1-3.7-0.2-4.8,0.6c-0.3,0.2-0.5,0.5-0.8,0.8c-0.2,0.2-0.3,0.5-0.3,0.9c-0.1,0.8,0,1.7,0.3,2.5c0.2,0.9,0.6,1.8,1,2.6
		c0.2,0.4,0.5,0.8,0.7,1.2C678.7,461.7,679,462.1,679.4,462.3z"/>
</g>
<g>
	<path class="st8" d="M393.1,267.8c0.1,0.7-0.1,1.5-0.5,2.1s-1.1,1-1.8,1.1s-1.5,0-2.2-0.5c-0.6-0.4-1.1-1-1.4-1.7
		c-0.6-1.3-0.8-2.9-0.4-4.4c0.4-1.5,1.3-2.8,2.6-3.6c2.6-1.7,6.3-1.3,8.6,0.7c1.2,1,2.1,2.3,2.6,3.7c0.6,1.4,0.8,2.9,0.8,4.4
		c-0.1,3.1-1.2,6-3.1,8.4c-1,1.2-2.2,2.2-3.5,2.9c-1.4,0.7-2.9,1.2-4.4,1.3c-3,0.3-6.1-0.1-8.8-1.4c-2.8-1.2-5.2-3.2-6.9-5.7
		s-2.7-5.5-2.9-8.4c-0.1-1.5-0.1-3,0.1-4.5c0.2-1.5,0.6-3,1.2-4.3c1.3-2.8,3.3-5,5.5-6.9s4.4-3.6,6.6-5.4c4.4-3.5,8.4-7.5,10.8-12.6
		c2.5-5,3.4-10.8,3.4-16.4c0.4,5.7-0.3,11.5-2.5,16.8c-1.1,2.7-2.7,5.1-4.6,7.3c-1.8,2.2-4,4.2-6.2,6c-2.2,1.9-4.4,3.6-6.5,5.5
		c-2,1.9-3.9,4-4.9,6.4c-1.1,2.4-1.4,5.2-1.1,7.8c0.3,2.7,1.1,5.3,2.6,7.5s3.6,4,6,5.1s5.2,1.5,7.8,1.3s5.1-1.5,6.8-3.5
		s2.8-4.6,2.9-7.3c0-2.6-0.8-5.4-2.7-7.2c-0.9-0.9-2.2-1.5-3.5-1.6c-1.3-0.2-2.7,0.1-3.8,0.8c-1.1,0.7-2,1.8-2.4,3
		c-0.4,1.3-0.4,2.7,0.2,3.9c0.5,1.2,1.7,2.3,3.1,2.1c0.7-0.1,1.3-0.4,1.8-0.9C393,269.3,393.2,268.5,393.1,267.8z"/>
</g>
<path class="st8" d="M404.1,178.3c-0.6-1.6-1-3.2-1-4.9c0-2,0.5-4,1.2-5.8c0.7-1.9,1.8-3.6,3.2-5s3.1-2.4,5-2.9s3.9-0.4,5.8,0.2
	c1.9,0.5,3.5,1.7,4.5,3.3s1.4,3.6,1.2,5.5c-0.3,1.8-1.4,3.7-3,4.6s-3.9,0.8-5.3-0.5c-1.5-1.2-1.9-3.6-0.7-5.2c0.6-0.8,1.6-1.3,2.5-1
	c0.5,0.1,0.9,0.4,1.2,0.9c0.3,0.4,0.3,1,0.2,1.5c0.2-0.5,0.2-1.1,0-1.6s-0.7-0.9-1.2-1.1s-1.1-0.2-1.7,0c-0.5,0.2-1,0.5-1.4,1
	c-0.7,0.9-1.1,2-1,3.2c0.1,1.1,0.6,2.3,1.5,3.1c1.7,1.6,4.4,2,6.6,0.9c1.1-0.5,2-1.3,2.6-2.3c0.7-1,1.1-2,1.3-3.2
	c0.4-2.3-0.1-4.7-1.2-6.7c-1.2-2-3.2-3.5-5.4-4.2c-2.2-0.7-4.5-0.8-6.8-0.3s-4.3,1.8-5.9,3.4c-1.6,1.6-2.8,3.6-3.6,5.7
	s-1.3,4.3-1.3,6.6c0,2.3,0.6,4.5,1.7,6.5c0.4,0.7,0.8,1.4,1.2,2v-3.7H404.1z"/>
<g>
	<path class="st8" d="M85.7,140.6c0-2.3-0.5-4.6-1.6-6.6c-2.1-4.1-6.5-6.8-11-7.2c-2.3-0.3-4.8,0.2-6.7,1.6
		c-1.9,1.4-3.3,3.4-3.8,5.6c-0.3,1.2-0.3,2.3-0.1,3.5c0.2,1.1,0.7,2.3,1.5,3.2c1.5,1.8,4.2,2.6,6.4,1.8c1.1-0.4,2-1.2,2.6-2.3
		c0.5-1,0.7-2.2,0.3-3.3c-0.3-1.1-1.3-2.1-2.5-2.1c-0.6,0-1.1,0.2-1.5,0.5c-0.4,0.4-0.6,0.9-0.6,1.4c0.1-0.5,0.3-1,0.7-1.3
		c0.4-0.3,0.9-0.4,1.4-0.3c1,0.1,1.8,0.9,1.9,1.9c0.5,2-0.9,4-2.7,4.4c-1.8,0.5-3.9-0.2-5-1.7s-1.4-3.6-0.9-5.4
		c0.5-1.8,1.7-3.5,3.3-4.5c1.6-1.1,3.5-1.4,5.4-1.2c3.9,0.4,7.6,2.8,9.3,6.2c0.9,1.7,1.4,3.6,1.4,5.6s-0.4,3.9-1.4,5.6
		c-0.3,0.5-0.6,1-1,1.5l-1.9,4.5l0.1-0.1c1.7-1.4,3.3-2.9,4.5-4.9C85.2,145.2,85.7,142.8,85.7,140.6z"/>
</g>
<g>
	<path class="st8" d="M385.4,172.4c-0.5-0.1-0.9-0.6-1.1-1c-0.2-0.5,0-1.1,0.4-1.4c0.4-0.4,0.9-0.6,1.5-0.5c0.5,0.1,1,0.3,1.4,0.7
		c1.7,1.5,0.7,4.7-1.5,5.1c-2.1,0.5-4.4-0.3-5.7-2.1c-0.3-0.4-0.6-0.9-0.7-1.5c-0.2-0.5-0.2-1.1-0.2-1.6c0.1-1.1,0.4-2.2,1-3.1
		c1.2-1.9,3.3-3,5.4-3.3c2.2-0.2,4.3,0.3,6.2,1.5c0.9,0.6,1.7,1.3,2.4,2.2c0.6,0.9,1.1,1.9,1.5,2.9c0.7,2.1,0.7,4.2,0.4,6.3
		c-0.3,2.1-1.2,4.1-2.2,5.9s-2.3,3.5-3.6,5.1c-2.7,3.1-5.6,6-8.3,9s-5.2,6.1-7,9.6c-0.9,1.7-1.6,3.6-2.1,5.4
		c-0.5,1.9-0.7,3.8-0.7,5.8c0,3.9,0.7,7.9,2.9,11c2.1,3.2,5.6,5.3,9.4,5.8c1.9,0.3,3.9,0.2,5.7-0.3c1.8-0.4,3.5-1.3,4.9-2.6
		c1.3-1.3,2.3-3,2.9-4.8c0.3-0.9,0.5-1.8,0.7-2.8c0.1-0.5,0.1-1,0.2-1.4c0-0.2,0-0.5,0-0.7s0-0.6,0-0.4c0-0.1-0.5-0.4-0.8-0.7
		c-0.4-0.2-0.8-0.5-1.3-0.7c-0.9-0.5-1.8-0.9-2.7-1.4c-1.8-1-3.5-2.2-5-3.8c-1.5-1.5-2.5-3.5-2.8-5.7c-0.3-2.1,0-4.4,1.3-6.2
		c1.3-1.7,3.4-2.8,5.6-2.8c1.1,0.1,2.2,0.6,2.9,1.3c0.8,0.8,1.2,1.8,1.3,2.9c0.1,1-0.1,2.2-0.9,3c-0.8,0.8-2,1-3,0.7
		s-1.7-1.5-1.3-2.6c0.2-0.5,0.7-0.9,1.2-0.9c0.3,0,0.5,0,0.7,0.2c0.2,0.1,0.4,0.4,0.5,0.6c-0.1-0.2-0.3-0.4-0.5-0.5
		s-0.5-0.2-0.7-0.1c-0.5,0.1-0.9,0.5-1.1,0.9c-0.3,0.9,0.4,2,1.3,2.2c0.9,0.3,2,0.1,2.6-0.7c0.6-0.7,0.8-1.7,0.7-2.7
		c-0.1-0.9-0.5-1.8-1.2-2.5c-0.7-0.6-1.6-1-2.5-1c-1.9,0-3.7,1-4.8,2.6c-1.1,1.5-1.4,3.5-1,5.4c0.3,1.9,1.3,3.6,2.6,5s3,2.5,4.8,3.4
		c0.9,0.5,1.8,0.9,2.7,1.4c0.5,0.2,0.9,0.5,1.4,0.7c0.2,0.1,0.5,0.3,0.7,0.5s0.5,0.4,0.7,0.8c0.1,0.2,0.2,0.6,0.2,0.7v0.4
		c0,0.3,0,0.5,0,0.8c0,0.5-0.1,1.1-0.2,1.6c-0.2,1-0.4,2.1-0.7,3.1c-0.7,2-1.7,4-3.3,5.5c-1.5,1.6-3.6,2.6-5.7,3.1
		c-2.1,0.5-4.2,0.7-6.4,0.4c-2.1-0.3-4.2-1-6.1-2.1c-1.9-1.1-3.4-2.6-4.7-4.4c-2.5-3.6-3.3-7.9-3.3-12.1c0-2.1,0.3-4.2,0.9-6.2
		c0.5-2,1.4-4,2.3-5.8c2-3.7,4.6-6.9,7.4-9.9c2.8-3,5.7-5.8,8.3-8.8s4.9-6.3,5.6-10.1c0.3-1.9,0.3-3.9-0.2-5.7
		c-0.3-0.9-0.7-1.8-1.2-2.5c-0.6-0.7-1.2-1.4-2-1.9c-1.6-1-3.5-1.6-5.4-1.4c-1.9,0.1-3.7,1.1-4.7,2.7c-1,1.5-1.3,3.7-0.2,5.2
		c1.1,1.6,3.1,2.4,5,2c0.9-0.2,1.7-0.8,2-1.7c0.3-0.9,0.2-2-0.5-2.6c-0.3-0.3-0.8-0.6-1.3-0.7s-1,0.1-1.3,0.4s-0.6,0.8-0.4,1.3
		C384.6,171.8,384.9,172.3,385.4,172.4z"/>
</g>
<path id="main_background" class="st9" d="M742.2,315.5H481.6c0,0-3.3-7.3-3.3-9.1s-5.1,0-5.1,0s1.2,2.1-3.6,2.1s-20.9,0-20.9,0
	l-40-20.6h-4.5v-126c0-0.7,0.5-1.3,1.2-1.5l19.8-4.2c0.7-0.1,1.2-0.8,1.2-1.5l0,0c0-0.7-0.5-1.3-1.1-1.5l-13-3.5l-40.2-12.1
	l-0.3-17.5l26.8-3.8L224,0.3c0,0-151.1,115.6-166.3,127.5h26.4l0.7,169.9c0,0-84.8,3.7-84.8,13.7s15.2,44.5,34.9,62.8
	c1.7,1.6,1.9,3,2.7,4.3c1.3,1.7,5.7,3.7,7.1,4.5c3.2,1.8,56.4,32.7,59.5,32.5c2.8-0.2,4.4-2.2,7.3-2.4c3.1-0.3,4.6,3.8,4.6,3.8
	s2,3.3,3.2,4s20.9,3.6,20.9,3.6l3.2,7.6c0,0,0.1,1.6,1,2.6s11.5,0,11.5,0s4.3-2.3,7,0c4.2,3.7,19.8,19.4,21.4,21
	c1.6,1.7,24.5,26,66.7,39.2c6.7,2.7,9.7,6.1,9.7,6.1s27.2,41.8,58.4,49.9c10.9,12.7,71,108.7,86.9,108.7s38.1-40.6,40-44.8
	c1.8-4.2,4.5-23,12.7-24.5s30-7.9,33.3-8.5s10.3-3.9,10.3-3.9s14.8-30.3,60.8-34.8c4.2,0,5.4,0.6,6.4-3.9c0.9-4.5,3.9-18.2,3.9-18.2
	l23.3-7.6c0,0,2.1-7.6,7.9-14.8c5.8-7.3,18.5-27.8,24.5-29.7c6.1-1.8,36.3-6.7,36.3-6.7s7.9-11.8,9.7-13.3s5.8-0.3,6.7-1.8
	s2.4-7.3,2.4-7.3s30.3-37.2,43.9-37.8c0-6.7,5.4-41.2,20.9-41.8c0-6.1,9.4-18.5,9.4-18.5v-7.6C758.3,334.6,744,318.2,742.2,315.5z
	 M398.6,288h-26.7v-6.1l-0.1-114.2l25-5.8c0.9-0.2,1.8,0.5,1.8,1.5V288z"/>
<linearGradient id="dark_middle_1_" gradientUnits="userSpaceOnUse" x1="626.7477" y1="116.6148" x2="579.3361" y2="339.6693" gradientTransform="matrix(1 0 0 -1 0 672.2)">
	<stop  offset="0.2142" style="stop-color:#161C68;stop-opacity:0.28"/>
	<stop  offset="0.3082" style="stop-color:#101653;stop-opacity:0.3301"/>
	<stop  offset="0.4678" style="stop-color:#070D35;stop-opacity:0.4152"/>
	<stop  offset="0.6046" style="stop-color:#020723;stop-opacity:0.4882"/>
	<stop  offset="0.7018" style="stop-color:#00051C;stop-opacity:0.54"/>
</linearGradient>
<path id="dark_middle" class="st10" d="M455.9,591.9c1.2-1,2.2-1.1,2.7-1.3c8.1-1.9,30-7.9,33.3-8.5s10.3-3.9,10.3-3.9
	s14.8-30.3,60.8-34.8c4.2,0,5.4,0.6,6.4-3.9c0.9-4.5,3.9-18.2,3.9-18.2l23.3-7.6c0,0,2.1-7.6,7.9-14.8c5.8-7.3,18.5-27.8,24.5-29.7
	c6.1-1.8,36.3-6.7,36.3-6.7s7.9-11.8,9.7-13.3s5.8-0.3,6.7-1.8s2.4-7.3,2.4-7.3s30.3-37.2,43.9-37.8c0-6.7,5.4-41.2,20.9-41.8
	c0-6.1,9.4-18.5,9.4-18.5v-7.6c0,0-14.2-16.3-16-19.1c-0.4,0-55.9,0.3-81.9,0c28.7,23.6-123.1,47.9-164.5,35.6
	C526.3,425.1,487.3,557.1,455.9,591.9z"/>
<linearGradient id="left_highlight_2_" gradientUnits="userSpaceOnUse" x1="351.3148" y1="15.1607" x2="329.7545" y2="323.4885" gradientTransform="matrix(1 0 0 -1 0 672.2)">
	<stop  offset="0.2944" style="stop-color:#161C68;stop-opacity:0.37"/>
	<stop  offset="0.4236" style="stop-color:#0E144D;stop-opacity:0.56"/>
	<stop  offset="0.6185" style="stop-color:#04092A;stop-opacity:0.8464"/>
	<stop  offset="0.723" style="stop-color:#00051C"/>
</linearGradient>
<path id="left_highlight" class="st11" d="M316.8,362.8c-37.5,26.3-112.5,26.3-153.9,72.3c1.8,3.9,44.2,46.6,88.1,60.2
	c6.7,2.7,9.7,6.1,9.7,6.1s27.2,41.8,58.4,49.9C330,564,390.1,660,406,660s38.1-40.6,40-44.8c1.8-4.2,4.5-23,12.7-24.5
	c30.7-24.5,64.7-219.5,35.6-245.3c-10.5,11-23.1,8.1-54.1,13.6C411.8,364,352.3,364.8,316.8,362.8z"/>
<g id="left_highlight_1_">
	<g>
		<path class="st9" d="M162.9,435.1c0.6,1,1.3,1.8,2.1,2.6c0.7,0.8,1.5,1.7,2.3,2.5c1.6,1.6,3.2,3.2,4.8,4.7c3.3,3.1,6.6,6.1,10,9
			c6.8,5.8,14,11.3,21.3,16.5c7.4,5.1,15,9.9,22.9,14.1c4,2.1,8,4.1,12.1,5.8s8.3,3.3,12.6,4.7l0,0l0,0c1.8,0.7,3.5,1.6,5.2,2.6
			c0.8,0.5,1.6,1,2.4,1.6s1.5,1.2,2.2,1.9l0,0l0,0c3.6,5.4,7.6,10.5,11.9,15.5c4.2,4.9,8.7,9.7,13.5,14.1c4.8,4.4,9.8,8.5,15.3,12
			s11.3,6.4,17.6,8h0.1l0.1,0.1c3.1,3.8,5.8,7.7,8.6,11.6c2.8,3.9,5.5,7.9,8.2,11.9c5.4,7.9,10.9,15.9,16.4,23.7
			c5.5,7.9,11.1,15.7,16.8,23.4s11.6,15.3,17.9,22.6c3.2,3.6,6.4,7.2,10,10.3c1.8,1.6,3.7,3.1,5.8,4.2c1,0.5,2.2,0.9,3.3,0.8
			c0.6,0,1.2-0.1,1.7-0.2l0.9-0.2l0.8-0.3c2.2-0.8,4.3-2.1,6.2-3.5s3.7-3,5.4-4.8c3.4-3.4,6.4-7.1,9.2-11c2.9-3.9,5.5-7.8,8.1-11.9
			c2.5-4.1,5-8.2,7.1-12.5c0.5-1.1,0.8-2.3,1.1-3.4l1-3.5c0.6-2.3,1.3-4.6,2.2-6.9c0.8-2.3,1.8-4.5,3.1-6.5c0.7-1,1.4-2,2.3-2.7
			c0.9-0.8,2-1.4,3.2-1.6c-1.2,0.2-2.3,0.8-3.2,1.6s-1.7,1.7-2.3,2.7c-1.3,2-2.3,4.2-3.1,6.5s-1.5,4.6-2.1,6.9l-0.9,3.5
			c-0.3,1.2-0.6,2.3-1.1,3.5c-2.1,4.4-4.5,8.5-7,12.6s-5.2,8.1-8,12c-2.9,3.9-5.9,7.6-9.3,11.1c-1.7,1.7-3.5,3.4-5.4,4.8
			c-1.9,1.5-4,2.8-6.3,3.6l-0.9,0.3l-0.9,0.2c-0.6,0.2-1.2,0.2-1.8,0.2c-1.3,0.1-2.5-0.4-3.6-0.9c-2.2-1.1-4.1-2.7-5.9-4.2
			c-3.6-3.2-6.9-6.8-10.1-10.4c-6.3-7.3-12.2-14.9-18-22.6c-5.8-7.7-11.4-15.5-16.9-23.4s-11-15.8-16.5-23.7l-8.2-11.9
			c-2.8-3.9-5.5-7.9-8.5-11.6l0.2,0.1c-6.4-1.7-12.3-4.7-17.8-8.2c-5.5-3.6-10.6-7.7-15.4-12.2s-9.3-9.2-13.5-14.2
			c-4.2-5-8.2-10.2-11.9-15.6l0,0c-0.6-0.7-1.4-1.3-2.1-1.8c-0.8-0.6-1.5-1.1-2.3-1.6c-1.6-1-3.3-1.8-5.1-2.6l0,0
			c-4.3-1.4-8.5-3-12.7-4.7c-4.1-1.8-8.2-3.8-12.2-5.9c-7.9-4.3-15.6-9-22.9-14.2s-14.4-10.8-21.2-16.7c-3.4-2.9-6.7-6-10-9.1
			c-1.6-1.6-3.2-3.2-4.8-4.8c-0.8-0.8-1.5-1.6-2.3-2.5C164.2,436.9,163.5,436,162.9,435.1z"/>
	</g>
</g>
<linearGradient id="very_right_1_" gradientUnits="userSpaceOnUse" x1="722.8157" y1="221.8253" x2="693.6839" y2="358.8796" gradientTransform="matrix(1 0 0 -1 0 672.2)">
	<stop  offset="0" style="stop-color:#00051C"/>
	<stop  offset="1" style="stop-color:#00051C"/>
</linearGradient>
<path id="very_right" class="st12" d="M665.3,462.6c0,0,7.9-11.8,9.7-13.3s5.8-0.3,6.7-1.8s2.4-7.3,2.4-7.3s30.3-37.2,43.9-37.8
	c0-6.7,5.4-41.2,20.9-41.8c0-6.1,9.4-18.5,9.4-18.5v-7.6c0,0-14.2-16.3-16-19.1c-0.4,0-32.4,0.3-58.4,0
	c34.1,3.7,18.7,18.9,17.8,42.6c-0.1,3.5,6.9,11.3,6.2,15c-0.3,1.7,0.6,9.8,0.2,11.5C699.1,424.7,665.3,462.6,665.3,462.6z"/>
<linearGradient id="dark_2_" gradientUnits="userSpaceOnUse" x1="533.4725" y1="218.75" x2="456.6" y2="218.75" gradientTransform="matrix(1 0 0 -1 0 672.2)">
	<stop  offset="0" style="stop-color:#00051C"/>
	<stop  offset="1" style="stop-color:#00051C"/>
</linearGradient>
<path id="dark" class="st13" d="M456.6,591.4c50.9-46.3,112.2-264.5,51.8-275.9c9.3,21-19.8,23.2-49.8,29.9
	c57.7,33.8,44,159.7,28.7,169.7c-2.4,1.6-0.2,17.3-1,20C478,562.2,462.1,582.8,456.6,591.4z"/>
<linearGradient id="dark_3_" gradientUnits="userSpaceOnUse" x1="637.8315" y1="233.85" x2="567.4" y2="233.85" gradientTransform="matrix(1 0 0 -1 0 672.2)">
	<stop  offset="0" style="stop-color:#00051C"/>
	<stop  offset="1" style="stop-color:#00051C"/>
</linearGradient>
<path id="dark_1_" class="st14" d="M567.4,543.2c1.4-0.3,1.9-3.8,2.5-6.1c0.7-2.8,1.4-7.5,3.4-15.7c3.9-16.1,10.7-40.8,24.7-63.7
	c31.6-51.5,54.3-118.9,28.9-124.2c-13.5,8.4-21.1,11.2-37.7,13.5c32.7,2.9,18.9,61.6,13.4,81.2C600.6,435.4,567.4,524.7,567.4,543.2
	z"/>
<linearGradient id="dark_6_" gradientUnits="userSpaceOnUse" x1="356.3" y1="239.5" x2="248.7167" y2="239.5" gradientTransform="matrix(1 0 0 -1 0 672.2)">
	<stop  offset="0" style="stop-color:#00051C"/>
	<stop  offset="1" style="stop-color:#00051C"/>
</linearGradient>
<path id="dark_4_" class="st15" d="M261.4,502.7c-25.5-53.9-3.6-123.4,94.9-138.9c-13.5-0.1-7.7-0.3-28.2-1.1
	c-16.8,6.9-19.3,8.7-44.3,20.6C254.8,397.1,234.3,446.8,261.4,502.7z"/>
<linearGradient id="dark_7_" gradientUnits="userSpaceOnUse" x1="304.9521" y1="201.1219" x2="242.7935" y2="201.1219" gradientTransform="matrix(0.9752 0.2211 0.2211 -0.9752 -20.5979 567.9447)">
	<stop  offset="0" style="stop-color:#00051C"/>
	<stop  offset="1" style="stop-color:#00051C"/>
</linearGradient>
<path id="dark_5_" class="st16" d="M255.6,487.3c-7.6-46.4,12.5-88.9,78.5-104.7c-13.2-3.1,15.2-5.8-11.8,0.2
	C291,389.8,241.8,428.3,255.6,487.3z"/>
<linearGradient id="original_roof_1_" gradientUnits="userSpaceOnUse" x1="219.4499" y1="611.6623" x2="219.4499" y2="486.0017" gradientTransform="matrix(1 0 0 -1 0 672.2)">
	<stop  offset="0" style="stop-color:#000532"/>
	<stop  offset="0.1549" style="stop-color:#000529"/>
	<stop  offset="0.436" style="stop-color:#00051F"/>
	<stop  offset="0.7971" style="stop-color:#00051C"/>
</linearGradient>
<path id="original_roof" class="st17" d="M401,118L224,0.4c0,0-170.4,115-186.1,127.4l278.9,0.3L401,118z"/>
<g id="roof_gradient_1_">
	
		<linearGradient id="SVGID_4_" gradientUnits="userSpaceOnUse" x1="112.5862" y1="716.2394" x2="194.0724" y2="499.7152" gradientTransform="matrix(1 0 0 -1 0 672.2)">
		<stop  offset="0" style="stop-color:#161C68;stop-opacity:0.37"/>
		<stop  offset="0.5645" style="stop-color:#090E3A;stop-opacity:0.7658"/>
		<stop  offset="0.8985" style="stop-color:#00051C"/>
	</linearGradient>
	<path class="st18" d="M37.9,127.9l278.9,0.3l0,0L224,0.5C221.4,2.2,53.6,115.6,37.9,127.9z"/>
	
		<linearGradient id="SVGID_5_" gradientUnits="userSpaceOnUse" x1="359.0003" y1="636.629" x2="266.0551" y2="589.2711" gradientTransform="matrix(1 0 0 -1 0 672.2)">
		<stop  offset="0" style="stop-color:#00051C"/>
		<stop  offset="1.103294e-02" style="stop-color:#050A2D;stop-opacity:0.9694"/>
		<stop  offset="2.968738e-02" style="stop-color:#0B1143;stop-opacity:0.9176"/>
		<stop  offset="5.172559e-02" style="stop-color:#101654;stop-opacity:0.8564"/>
		<stop  offset="7.898771e-02" style="stop-color:#13195F;stop-opacity:0.7808"/>
		<stop  offset="0.1172" style="stop-color:#151B66;stop-opacity:0.6746"/>
		<stop  offset="0.2234" style="stop-color:#161C68;stop-opacity:0.38"/>
		<stop  offset="0.2487" style="stop-color:#151B64;stop-opacity:0.4002"/>
		<stop  offset="0.4503" style="stop-color:#0C1144;stop-opacity:0.5612"/>
		<stop  offset="0.6466" style="stop-color:#050A2E;stop-opacity:0.7178"/>
		<stop  offset="0.8332" style="stop-color:#010621;stop-opacity:0.8669"/>
		<stop  offset="1" style="stop-color:#00051C"/>
	</linearGradient>
	<path class="st19" d="M224.1,0.5C224.1,0.5,224,0.5,224.1,0.5l92.7,127.6L401,118L224.1,0.5z"/>
	<path class="st20" d="M224.1,0.5C224.1,0.5,224,0.5,224.1,0.5l92.7,127.6L224.1,0.5z"/>
</g>
<g id="house_gradient">
	
		<linearGradient id="SVGID_6_" gradientUnits="userSpaceOnUse" x1="152.7505" y1="495.338" x2="271.8702" y2="251.1063" gradientTransform="matrix(1 0 0 -1 0 672.2)">
		<stop  offset="0" style="stop-color:#161C68;stop-opacity:0.4"/>
		<stop  offset="9.531250e-02" style="stop-color:#00051C"/>
		<stop  offset="0.3186" style="stop-color:#161C49;stop-opacity:0.5"/>
		<stop  offset="0.4712" style="stop-color:#00051C"/>
	</linearGradient>
	<path class="st21" d="M313.6,309.1H84.9l-0.7-162.5c0,0,168.4,40,229.4,88.7C313.6,273,313.6,309.1,313.6,309.1z"/>
	<g id="border_highlight">
		
			<rect x="84.1" y="146.1" transform="matrix(1 -4.536164e-03 4.536164e-03 1 -1.0316 0.3861)" class="st22" width="1" height="163"/>
	</g>
	
		<linearGradient id="right_1_" gradientUnits="userSpaceOnUse" x1="350.2935" y1="367.6054" x2="332.4575" y2="512.8681" gradientTransform="matrix(1 0 0 -1 0 672.2)">
		<stop  offset="6.219952e-02" style="stop-color:#00051C"/>
		<stop  offset="0.1571" style="stop-color:#020722;stop-opacity:0.8273"/>
		<stop  offset="0.2831" style="stop-color:#070C33;stop-opacity:0.5979"/>
		<stop  offset="0.426" style="stop-color:#0F144E;stop-opacity:0.3379"/>
		<stop  offset="0.5347" style="stop-color:#161C68;stop-opacity:0.14"/>
		<stop  offset="0.5761" style="stop-color:#12185B;stop-opacity:0.2165"/>
		<stop  offset="0.6804" style="stop-color:#0A103F;stop-opacity:0.4092"/>
		<stop  offset="0.7857" style="stop-color:#050A2C;stop-opacity:0.6039"/>
		<stop  offset="0.8919" style="stop-color:#010620;stop-opacity:0.8001"/>
		<stop  offset="1" style="stop-color:#00051C"/>
	</linearGradient>
	<polygon id="right" class="st23" points="371.8,176.4 314.8,161.5 313.6,309.1 371.9,296.1 	"/>
</g>
<g id="right_window">
	
		<linearGradient id="SVGID_7_" gradientUnits="userSpaceOnUse" x1="199.1999" y1="469.05" x2="247.6" y2="469.05" gradientTransform="matrix(1 0 0 -1 0 672.2)">
		<stop  offset="0.1308" style="stop-color:#A8C03B"/>
		<stop  offset="0.2788" style="stop-color:#A7B93B"/>
		<stop  offset="0.4976" style="stop-color:#A5A53B"/>
		<stop  offset="0.759" style="stop-color:#A1843B"/>
		<stop  offset="1" style="stop-color:#9D603B"/>
	</linearGradient>
	<path class="st24" d="M199.2,250.3c0-9.7,0-69.4,0-74.9s9.1-19.4,24.2-19.4s24.2,13.7,24.2,19.8c0,5.2,0,74.5,0,74.5H199.2z"/>
	
		<radialGradient id="right_light_1_" cx="1070.9987" cy="449.5922" r="58.3421" gradientTransform="matrix(-1 0 0 -1 1249.5248 672.2)" gradientUnits="userSpaceOnUse">
		<stop  offset="0.4944" style="stop-color:#FFEE3B"/>
		<stop  offset="0.5603" style="stop-color:#FCE73B;stop-opacity:0.8697"/>
		<stop  offset="0.6578" style="stop-color:#F4D33B;stop-opacity:0.6769"/>
		<stop  offset="0.7748" style="stop-color:#E6B23B;stop-opacity:0.4453"/>
		<stop  offset="0.9059" style="stop-color:#D4853B;stop-opacity:0.186"/>
		<stop  offset="1" style="stop-color:#C5603B;stop-opacity:0"/>
	</radialGradient>
	<path id="right_light" class="st25" d="M199,175.8c0-1.8,0.8-4.3,2.4-6.9l0,0c1.2,0.5,2.3,1.1,3.5,1.6c0.2,0.1,0.5,0.2,0.7,0.3
		c2.3,1.2,4.5,2.5,6.5,4c0.2,0.1,0.4,0.3,0.6,0.4c2.1,1.5,4,3.1,5.9,4.8c0.2,0.2,0.4,0.4,0.6,0.6c1.8,1.8,3.5,3.6,5.1,5.6
		c0.2,0.2,0.3,0.4,0.5,0.7c0.8,1,1.5,2,2.2,3.1l0,0c0.7,1,1.3,2.1,2,3.2c0.1,0.3,0.3,0.5,0.4,0.8c0.6,1.1,1.2,2.2,1.8,3.4l0,0
		c0.5,1.1,1,2.3,1.5,3.4c0.1,0.3,0.2,0.6,0.3,0.9c0.5,1.2,0.9,2.4,1.3,3.6l0,0c0.4,1.2,0.7,2.4,1,3.7c0.1,0.3,0.1,0.6,0.2,0.9
		c0.3,1.3,0.5,2.5,0.7,3.8l0,0c0.2,1.3,0.3,2.6,0.4,3.9c0,0.3,0.1,0.7,0.1,1c0.1,1.3,0.2,2.6,0.2,4c0,1.1,0,2.3-0.1,3.4
		c0,0.3-0.1,0.7-0.1,1c-0.1,0.8-0.1,1.6-0.2,2.4c0,0.4-0.1,0.8-0.1,1.1c-0.1,0.8-0.2,1.6-0.4,2.3c-0.1,0.3-0.1,0.7-0.2,1
		c-0.2,1.1-0.4,2.1-0.7,3.2l0,0c-0.3,1.1-0.6,2.2-0.9,3.2c-0.1,0.2-0.2,0.5-0.2,0.7c-0.3,0.8-0.6,1.6-0.9,2.4
		c-0.1,0.3-0.2,0.6-0.3,0.8c-0.3,0.8-0.6,1.6-1,2.3c-0.1,0.2-0.2,0.5-0.3,0.7c-0.5,1-0.9,1.9-1.4,2.9l0,0h-30.9
		C199,250.3,199,181,199,175.8z"/>
	<polygon class="st9" points="247.7,174.2 224.9,174.2 224.9,156 221.9,156 221.9,174.2 199,174.2 199,177.6 221.9,177.6 
		221.9,250.3 224.9,250.3 224.9,177.6 247.7,177.6 	"/>
</g>
<g id="left_window">
	
		<linearGradient id="SVGID_8_" gradientUnits="userSpaceOnUse" x1="113.1802" y1="469.05" x2="161.5802" y2="469.05" gradientTransform="matrix(1 0 0 -1 0 672.2)">
		<stop  offset="4.407051e-04" style="stop-color:#56543B"/>
		<stop  offset="1" style="stop-color:#A88F3B"/>
	</linearGradient>
	<path class="st26" d="M108.5,250.3c0-9.7,0-69.4,0-74.9s9.1-19.4,24.2-19.4s24.2,13.7,24.2,19.8c0,5.2,0,74.5,0,74.5H108.5z"/>
	<g>
		
			<radialGradient id="SVGID_9_" cx="177.4455" cy="449.5922" r="58.3421" gradientTransform="matrix(1 0 0 -1 0 672.2)" gradientUnits="userSpaceOnUse">
			<stop  offset="4.443109e-02" style="stop-color:#FFEE3B"/>
			<stop  offset="0.1959" style="stop-color:#FDEA3B;stop-opacity:0.8415"/>
			<stop  offset="0.3578" style="stop-color:#F8DD3B;stop-opacity:0.6721"/>
			<stop  offset="0.5245" style="stop-color:#EFC73B;stop-opacity:0.4976"/>
			<stop  offset="0.6946" style="stop-color:#E3AA3B;stop-opacity:0.3196"/>
			<stop  offset="0.8654" style="stop-color:#D3833B;stop-opacity:0.1408"/>
			<stop  offset="1" style="stop-color:#C5603B;stop-opacity:0"/>
		</radialGradient>
		<path class="st27" d="M157,175.8c0-1.8-0.8-4.3-2.4-6.9l0,0c-1.2,0.5-2.3,1.1-3.5,1.6c-0.2,0.1-0.5,0.2-0.7,0.3
			c-2.3,1.2-4.5,2.5-6.5,4c-0.2,0.1-0.4,0.3-0.6,0.4c-2.1,1.5-4,3.1-5.9,4.8c-0.2,0.2-0.4,0.4-0.6,0.6c-1.8,1.8-3.5,3.6-5.1,5.6
			c-0.2,0.2-0.3,0.4-0.5,0.7c-0.8,1-1.5,2-2.2,3.1l0,0c-0.7,1-1.3,2.1-2,3.2c-0.1,0.3-0.3,0.5-0.4,0.8c-0.6,1.1-1.2,2.2-1.8,3.4l0,0
			c-0.5,1.1-1,2.3-1.5,3.4c-0.1,0.3-0.2,0.6-0.3,0.9c-0.5,1.2-0.9,2.4-1.3,3.6l0,0c-0.4,1.2-0.7,2.4-1,3.7c-0.1,0.3-0.1,0.6-0.2,0.9
			c-0.3,1.3-0.5,2.5-0.7,3.8l0,0c-0.2,1.3-0.3,2.6-0.4,3.9c0,0.3-0.1,0.7-0.1,1c-0.1,1.3-0.2,2.6-0.2,4c0,1.1,0,2.3,0.1,3.4
			c0,0.3,0.1,0.7,0.1,1c0.1,0.8,0.1,1.6,0.2,2.4c0,0.4,0.1,0.8,0.1,1.1c0.1,0.8,0.2,1.6,0.4,2.3c0.1,0.3,0.1,0.7,0.2,1
			c0.2,1.1,0.4,2.1,0.7,3.2l0,0c0.3,1.1,0.6,2.2,0.9,3.2c0.1,0.2,0.2,0.5,0.2,0.7c0.3,0.8,0.6,1.6,0.9,2.4c0.1,0.3,0.2,0.6,0.3,0.8
			c0.3,0.8,0.6,1.6,1,2.3c0.1,0.2,0.2,0.5,0.3,0.7c0.5,1,0.9,1.9,1.4,2.9l0,0h30.9C157,250.3,157,181,157,175.8z"/>
	</g>
	<polygon class="st9" points="157,173.9 134.3,173.9 134.3,156 131.2,156 131.2,173.9 108.5,173.9 108.5,176.9 131.2,176.9 
		131.2,250.3 134.3,250.3 134.3,176.9 157,176.9 	"/>
</g>
<g>
	
		<linearGradient id="SVGID_10_" gradientUnits="userSpaceOnUse" x1="392.0667" y1="158.9559" x2="351.3312" y2="226.2217" gradientTransform="matrix(1 0 0 -1 0 672.2)">
		<stop  offset="0" style="stop-color:#00051C"/>
		<stop  offset="1" style="stop-color:#00051C"/>
	</linearGradient>
	<path class="st28" d="M319.1,551.3c3.9-0.3,7.2-2.2,10-4.6c2.8-2.4,5.2-5.4,7.4-8.4c2.3-3,4.3-6.2,6.3-9.4s3.9-6.5,5.7-9.8
		c7.4-13.3,13.7-27,20-41c3.2-6.9,6.4-13.9,9.8-20.8c3.5-6.9,7-13.7,11.2-20.3c4.1-6.6,8.7-12.9,14.3-18.4c2.8-2.7,5.8-5.2,9.2-7.2
		c3.3-2,7-3.6,10.8-4.3c-7.2,2.7-13.1,7.7-17.8,13.5c-4.8,5.7-8.8,12.2-12.4,18.8c-7.2,13.3-13.2,27.3-19.5,41.2
		c-3.2,7-6.4,13.9-9.8,20.8c-3.5,6.9-7.3,13.6-11.3,20.2c-2.1,3.3-4.2,6.5-6.5,9.6s-4.7,6.2-7.3,9.1c-2.6,2.9-5.5,5.6-8.7,7.8
		c-1.6,1.1-3.4,2-5.3,2.6C323,551.3,321,551.5,319.1,551.3z"/>
</g>
<linearGradient id="SVGID_11_" gradientUnits="userSpaceOnUse" x1="11.0439" y1="355.468" x2="430.9717" y2="355.468" gradientTransform="matrix(0.9997 -2.353005e-02 -2.353005e-02 -0.9997 6.1265 680.6044)">
	<stop  offset="0" style="stop-color:#161C68;stop-opacity:0.8"/>
	<stop  offset="4.350194e-02" style="stop-color:#0E144D;stop-opacity:0.8603"/>
	<stop  offset="0.1091" style="stop-color:#04092A;stop-opacity:0.9512"/>
	<stop  offset="0.1443" style="stop-color:#00051C"/>
	<stop  offset="0.2122" style="stop-color:#020723;stop-opacity:0.8744"/>
	<stop  offset="0.3079" style="stop-color:#070D35;stop-opacity:0.6977"/>
	<stop  offset="0.4196" style="stop-color:#101653;stop-opacity:0.4915"/>
	<stop  offset="0.4853" style="stop-color:#161C68;stop-opacity:0.37"/>
	<stop  offset="1" style="stop-color:#161C68;stop-opacity:0.1"/>
</linearGradient>
<path class="st29" d="M428.4,306.4c-3.7,2.2-7.9,4-12.1,5.6c-4.2,1.6-8.4,2.9-12.8,4.1c-8.6,2.4-17.4,4.4-26.2,6.1
	c-8.8,1.7-17.7,3.2-26.6,4.5c-8.9,1.3-17.9,2.5-26.8,3.5c-35.9,4.2-71.9,6.4-107.9,7.4c-9,0.2-18.1,0.4-27.1,0.4s-18.1-0.1-27.1-0.4
	c-18.2-0.4-36.1-3.1-53.6-7.1c-8.7-2-17.4-4.5-25.9-7c-2.2-0.6-4.2-1.3-6.4-1.8c-1.1-0.3-2.2-0.6-3-0.6l-3.3-0.1
	c-4.5-0.1-9-0.3-13.6-0.6c-9-0.6-18,2.4-26.8,0.5c-4.4-1-8.7-2.2-12.8-4.1c-2-1-3.9-2.1-5.4-3.7c-1.6-1.5-2.6-3.5-2.5-5.6
	c0,2.1,1.1,4,2.7,5.4c1.6,1.4,3.5,2.5,5.5,3.4c4,1.7,8.3,2.8,12.8,3.6c8.7,1.6,17.8-1.7,26.7-1.2c4.5,0.2,8.9,0.3,13.5,0.4h3.3
	c1.4,0,2.5,0.3,3.6,0.6c2.2,0.5,4.3,1.1,6.5,1.7c8.6,2.4,17.2,4.6,25.9,6.6c17.4,3.9,35.2,6.4,53,6.7c18,0.5,35.9,0.5,53.9,0.1
	s35.9-1.2,53.9-2.3c18-1.2,35.9-2.5,53.8-4.3c17.9-1.8,35.8-4.2,53.4-7.2c8.8-1.6,17.7-3.3,26.3-5.5c4.3-1.1,8.6-2.4,12.9-3.8
	C420.4,310.2,424.6,308.5,428.4,306.4z"/>
</svg>
