<?xml version="1.0" encoding="utf-8"?>
<!-- Generator: Adobe Illustrator 22.1.0, SVG Export Plug-In . SVG Version: 6.00 Build 0)  -->
<svg version="1.1" id="Layer_1" xmlns="http://www.w3.org/2000/svg" xmlns:xlink="http://www.w3.org/1999/xlink" x="0px" y="0px"
	 viewBox="0 0 64 80" style="enable-background:new 0 0 64 80;" xml:space="preserve">
<style type="text/css">
	.st0{fill:#020202;}
</style>
<g id="_x31_">
	<circle class="st0" cx="37.3" cy="6.1" r="6.1"/>
	<g id="five">
		<path class="st0" d="M25.4,41.5l2.1-25.3c-0.7,1.3-3.3,6.9-3.9,8c-0.6,1.2-1.7,3.5-1.7,4.3s0,5.5,0,8.9
			C21.9,40.1,24.1,41.1,25.4,41.5z"/>
		<path class="st0" d="M33.5,31.9c0.1,0.3,0.1,0.5,0.3,0.8c0.1,0.2,0.3,0.5,0.4,0.8c1.2,2.1,3.7,6.5,4.1,7.3c0.8,1.4,2,1.7,3.1,1.7
			c3,0,3.5-3.5,2.5-5.1c-0.4-0.7-2.4-4.3-3-5.4c-0.6-1.1-0.7-1.7-0.7-2.5c0.1-1.7,0.1-7.7,0.1-10.7c0-3.4-4.1-4.6-9.2-4.6
			c-1.3,0-2.1,0.4-2.7,0.9l-2.3,27.3c0,2.6-0.2,11.4-0.2,12.6c0,1.3-0.7,2.9-1.1,3.9C24.4,59.8,20.9,71,19.9,74
			c-1.1,3,1.3,6.1,3.6,6.1s3.5-1.1,4-2.2s5.5-17.2,5.9-18.1c0.3-0.9,0.7-2.7,0.7-3.5c0.1-0.9,0.3-7.7,0.5-9.7c0.1,1.2,0.7,7.7,0.7,9
			c0.1,1.3-0.2,3.1-0.4,3.7c-0.1,0.6-2.5,12.9-2.7,14.3s0.6,5.3,4.3,5.3c3.7,0,4.1-3.4,4.3-4.3c0.2-0.9,1.8-12.1,2.4-15.7
			c0.6-3.7-0.3-6.1-0.9-7.3c-0.7-1.4-7.8-15.4-9-17.5c-0.2-0.3-0.3-0.5-0.5-0.8c-0.2-0.3-0.3-0.7-0.3-1c-0.1-0.7-0.1-1.4,0-2
			l0.3-3.7c0.2-2.5,0.3-2.9,0.6-5.4c0,2.5,0,7.8,0,9.1C33.4,30.8,33.4,31.4,33.5,31.9z"/>
	</g>
</g>
</svg>
