<?xml version="1.0" encoding="utf-8"?>
<!-- Generator: Adobe Illustrator 22.1.0, SVG Export Plug-In . SVG Version: 6.00 Build 0)  -->
<svg version="1.1" id="Layer_1" xmlns="http://www.w3.org/2000/svg" xmlns:xlink="http://www.w3.org/1999/xlink" x="0px" y="0px"
	 viewBox="0 0 64 80" style="enable-background:new 0 0 64 80;" xml:space="preserve">
<style type="text/css">
	.st0{fill:#020202;}
</style>
<g id="_x37_">
	<circle class="st0" cx="37.2" cy="6.1" r="6.1"/>
	<path class="st0" d="M44,37.6C43.5,36.9,40.7,32,40,31c-0.2,1.3-0.4,2.5-0.5,3.8c-0.2,1.5-0.3,3.1-0.3,4.6c0,0.6,0,1.3,0,1.9
		c0.4,1.1,0.9,1.6,2.5,1.6C44,42.8,45.2,39.6,44,37.6z"/>
	<g>
		<path class="st0" d="M34,56.7L34,56.7c-0.1-0.5-0.2-0.9-0.4-1.3c0-0.1-0.1-0.2-0.1-0.3l-0.2-0.3L33,54.2l-1.2-2.5l-2.5-5
			c-0.8-1.6-1.5-3.2-2.3-4.8c-0.3,0-0.4,0.1-0.6,0.1h-0.1c-0.2,2-0.6,12-0.7,13c-0.1,1.1-0.3,2.3-0.5,2.9
			c-0.2,0.6-4.1,12.6-4.4,13.5c-0.3,0.9-1,2.5-1.1,4C19.4,78.1,21,80,23.6,80c2.4,0,3.7-1.4,4.3-3c0.3-1,5.6-17.4,5.8-18.4
			C34,57.8,34,57.4,34,56.7z"/>
		<path class="st0" d="M42.8,53.1c-0.4-0.7-2.8-6.2-3.5-7.8c-0.5-1.2-0.6-3.3-0.5-6c0.1-1.6,0.2-3.1,0.4-4.7
			c0.2-1.9,0.6-3.7,0.9-5.6c0.1-2.9,0.4-8.8,0.4-10.5c0-2.4-3.1-3.7-4.1-3.9c-0.8-0.1-4.2-0.4-5.6-0.4c-2.1-0.1-2.7,1.7-3.2,2.4
			c-0.4,0.7-4.2,8.4-4.6,9.2c-0.4,0.8-0.7,2.1-0.7,2.9c0,0.7,0.1,6.4,0.1,9.4c0,1.6,1,2.5,2,3c0.1,0,0.1,0,0.2,0.1
			c0.6,0.2,1.2,0.3,1.8,0.2c0.6-0.1,1.2-0.3,1.6-0.7c0.5-0.4,0.8-0.9,1.1-1.5c0.2-0.6,0.3-1.2,0.3-1.8l-0.1-3.9l-0.1-2v-1
			c0-0.3,0-0.7,0-1c0.1-0.7,0.4-1.3,0.6-1.9l0.8-1.6l3.3-7.1l-3,7.2L30,27.9c-0.3,0.6-0.5,1.2-0.6,1.8c0,0.3,0,0.6,0,0.9v1l0.1,2
			l0.2,3.9c0.1,1.3-0.5,2.8-1.6,3.7c-0.2,0.2-0.5,0.4-0.8,0.5c0.8,1.6,1.6,3.1,2.4,4.7c0.8,1.7,1.7,3.3,2.5,5l1.2,2.5l0.3,0.6
			l0.2,0.3c0.1,0.1,0.1,0.2,0.2,0.3c0.8,1.7,0.4,3.3,0.1,5.1c-0.7,4.3-1.8,11.5-2.1,13.3c-0.3,2.6,1.2,5.3,4.3,5.3s3.9-2.6,4.2-4.3
			c0.2-1,2.5-14.5,2.7-16.3C43.5,56.5,43.2,53.9,42.8,53.1z"/>
	</g>
</g>
</svg>
