<?xml version="1.0" encoding="utf-8"?>
<!-- Generator: Adobe Illustrator 22.1.0, SVG Export Plug-In . SVG Version: 6.00 Build 0)  -->
<svg version="1.1" id="Layer_1" xmlns="http://www.w3.org/2000/svg" xmlns:xlink="http://www.w3.org/1999/xlink" x="0px" y="0px"
	 viewBox="0 0 64 80" style="enable-background:new 0 0 64 80;" xml:space="preserve">
<style type="text/css">
	.st0{fill:none;}
	.st1{fill:#020202;}
</style>
<g id="_x36_">
	<path class="st0" d="M31.2,68.5C31.2,68.4,31.2,68.4,31.2,68.5C31.2,68.4,31.2,68.4,31.2,68.5C31.2,68.4,31.2,68.4,31.2,68.5z"/>
	<ellipse class="st1" cx="36.6" cy="6.1" rx="6.1" ry="6.1"/>
	<path class="st1" d="M31.2,76.2c0,1.5,1.4,3.8,4.4,3.8s4.3-3.1,4.3-3.8c0-0.7,0-13.9,0-16.6c0-2.7-0.4-5-0.5-5.7c0,0,0-0.1,0-0.2
		c-1.1,2.8-3.5,7.7-8.1,16.5C31.2,72.1,31.2,75.2,31.2,76.2z"/>
	<path class="st1" d="M39.2,52.1c-0.4-2.3-0.9-6-1-6.6c-0.1-0.7-0.1-3,0-4c0.1-1,1.7-18.3,1.8-20c0,0,0-0.9,0-2.8s-3.3-4.2-4.2-4.2
		c-0.9,0-4,0-5.7,0s-2.5,1.4-2.7,2.2c-0.2,0.8-1.4,9.3-1.5,11.1c-0.1,1.8,0.5,3.4,0.5,4.2c0.1,0.3,0.2,0.7,0.4,1
		c0.5,1.6,1.2,3.1,1.8,4.7c0.3,0.8,0.6,1.6,1,2.2c0.2,0.3,0.5,0.6,0.8,0.8c0.3,0.2,0.7,0.3,1.1,0.4c1.6,0.4,3.1-0.6,3.8-2
		c0.3-0.7,0.4-1.5,0.3-2.3c0-0.4-0.2-0.7-0.3-1.1l-0.4-1.2L34,32c-0.3-0.8-0.6-1.6-0.8-2.4S33,27.9,33,27.1c0.1-0.8,0.2-1.7,0.3-2.5
		c0.2-1.7,0.4-3.3,0.7-4.9h0.1c-0.2,1.7-0.3,3.3-0.5,5c-0.1,1.7-0.4,3.3,0.1,4.9s1.1,3.1,1.6,4.7l0.4,1.2c0.1,0.4,0.3,0.8,0.4,1.2
		c0.1,0.9,0,1.8-0.4,2.6c-0.4,0.8-1,1.5-1.8,2c-0.4,0.2-0.8,0.3-1.3,0.4c-0.2,0-0.4,0-0.7,0c-0.2,0-0.4,0-0.7-0.1
		c-0.4-0.1-0.9-0.2-1.3-0.4c-0.4-0.2-0.7-0.5-1-0.9c-0.5-0.7-0.8-1.5-1.1-2.3c-0.6-1.5-1.1-3-1.6-4.5c0,2.3-0.1,6.9,0.1,7.3
		c0.3,0.7,2.7,9.5,2.9,10.2s0,1.7-0.3,2.4c-0.3,0.7-6.4,13-6.9,13.8c-0.4,0.8-0.8,1.9-0.8,3c0,1.2,0.7,4.6,4.2,4.6
		c1.4,0,2.5-0.6,3.7-2.5C30.4,70,38,55,39.2,52.1z"/>
</g>
</svg>
