<?xml version="1.0" encoding="utf-8"?>
<!-- Generator: Adobe Illustrator 22.1.0, SVG Export Plug-In . SVG Version: 6.00 Build 0)  -->
<svg version="1.1" id="Layer_1" xmlns="http://www.w3.org/2000/svg" xmlns:xlink="http://www.w3.org/1999/xlink" x="0px" y="0px"
	 viewBox="0 0 64.1 80" style="enable-background:new 0 0 64.1 80;" xml:space="preserve">
<style type="text/css">
	.st0{fill:#020202;}
</style>
<g>
	<path class="st0" d="M44.2,41.3c0.6-2.2,4-16.7,4.2-17.6s1.6-6.6-3.4-7.8s-5-1.1-6.1-1.4c-1.1-0.3-4.7-0.3-7.1,0
		c-2.5,0.3-8.4,1.4-9.8,1.6c-1.4,0.2-1.7,0.3-3.2,1.5c-2,1.6-6.4,5.2-7.7,6.2c-1.9,1.4-1.9,3.9-0.9,5.4c1.1,1.7,4.1,1.9,5.7,0.6
		s3.9-3.3,4.9-4.2s2.2-1.9,3.6-2.1c1.4-0.3,8.2-1.5,9.3-1.7c1.2-0.2,1.4-0.1,1.2,0.7c-0.2,0.8-4.2,16.6-4.5,17.6c-0.3,1,0.3,1,1.2,2
		c0.8,0.9,11.7,12.4,12.3,13c0.6,0.6,0.8,1.7,1.4,2.8c0.5,1.1,5.9,17.8,6.4,18.9c0.6,1.5,1.5,3.1,4,3.1c3.5,0,6-3.3,5-5.8
		c-1.1-2.9-5.9-18.3-6.4-19.7s-1.9-4.4-3.7-6.2s-5-4.8-5.4-5.3C44.8,42.6,44,41.9,44.2,41.3z"/>
	<path class="st0" d="M29.6,42.1c1.6,1.5,4.7,4.9,5.7,5.9c0.6,0.5,0.4,0.8,0,1.4c-0.4,0.6-4,5.8-4.5,6.6c-0.6,0.8-3.2,3.5-4.7,4.4
		C24.6,61.3,8.6,71.6,7.6,72.3c-1.7,1.1-4.6,1.4-6.2,0c-1.4-1.2-2.2-5.2,0.2-6.9c2.3-1.7,17.6-11.6,18.7-12.2
		c1.1-0.6,2.6-2.4,3.4-3.4c0.8-1,4.7-6.3,5-6.7S29.6,42.1,29.6,42.1z"/>
	<path class="st0" d="M49.8,25.8c0.4,1,3.1,7.6,3.3,8c0.2,0.4,0.8,0.5,1.4,0.6c0.5,0.1,5.4,0.7,6.2,0.8c2,0.3,3.4,1.6,3.4,3.8
		c0,2.7-1.3,3.7-3.8,3.7s-9.1-1.4-9.4-1.5c-0.4-0.1-1-0.2-1.6-0.6c-0.6-0.5-2.2-1.8-2.6-2.3C47,37.1,49.8,25.8,49.8,25.8z"/>
	<circle class="st0" cx="47.3" cy="6.3" r="6.3"/>
</g>
</svg>
