<?xml version="1.0" encoding="utf-8"?>
<!-- Generator: Adobe Illustrator 22.1.0, SVG Export Plug-In . SVG Version: 6.00 Build 0)  -->
<svg version="1.1" id="Layer_1" xmlns="http://www.w3.org/2000/svg" xmlns:xlink="http://www.w3.org/1999/xlink" x="0px" y="0px"
	 viewBox="0 0 64 80" style="enable-background:new 0 0 64 80;" xml:space="preserve">
<style type="text/css">
	.st0{fill:#020202;}
</style>
<g id="_x31_1">
	<circle class="st0" cx="39.2" cy="6.1" r="6.1"/>
	<path class="st0" d="M42.4,21c0,2-2,24-2,24s2.4,4.2,2.8,5c0.4,0.8,1.7,4.3,1.9,5.8s3.5,18,3.7,19.1s-0.1,4.5-2.9,5
		c-2.7,0.6-4.8-1.5-5.5-5s-2.7-15.6-2.9-16.7c-0.2-1.1-0.6-1.6-1.1-2.6s-6.3-13-6.6-13.6c1.5-1.4,2.4-2.1,2.4-3.3c0-2.4,0-9.7,0-9.7
		s0.3-0.8,0.4-1.1c0.2-0.3,2.8-7.9,3.1-8.7c-0.9,1.5-3.6,6.9-3.9,7.7c-0.3,0.8-1.1,1.9-1.1,2.9c0,0.9,0,8.5,0,8.9S30,41,27.6,41
		s-3.5-1.7-3.5-3.8s0-4.5,0-5.8c0-2.9,0.1-4.3,1.1-6.3c0.7-1.4,3.9-7.9,4.3-8.6c0.4-0.7,1.3-1.7,2.7-1.7c1.4,0,4.3,0,5.5,0
		C38.9,14.7,42.4,15.3,42.4,21z"/>
	<path class="st0" d="M42.8,30.6c0.7,1.1,3.1,5.3,3.5,6.1c0.8,1.5,1,5.8-2.3,5.8c-1.4,0-1.9-0.9-1.9-1.8
		C42,39.8,42.8,30.6,42.8,30.6z"/>
	<path class="st0" d="M29.1,43c0,0,5.9,12.4,6.3,13c0.4,0.5,0.1,1.4-0.9,2.7s-10.8,15-11.6,16s-2,2.4-4.9,1.8
		c-2.5-0.5-3.7-3.8-2-6.4c1.1-2,11.6-18.2,12.2-18.9s0.6-1.1,0.7-2.1C29,48.1,29.1,43,29.1,43z"/>
</g>
</svg>
