<?xml version="1.0" encoding="utf-8"?>
<!-- Generator: Adobe Illustrator 22.1.0, SVG Export Plug-In . SVG Version: 6.00 Build 0)  -->
<svg version="1.1" id="Layer_1" xmlns="http://www.w3.org/2000/svg" xmlns:xlink="http://www.w3.org/1999/xlink" x="0px" y="0px"
	 viewBox="0 0 64 80" style="enable-background:new 0 0 64 80;" xml:space="preserve">
<style type="text/css">
	.st0{fill:#020202;}
</style>
<g id="_x33__1_">
	<circle class="st0" cx="35.2" cy="6.5" r="6.5"/>
	<path class="st0" d="M27.5,15.9c1.5,0,7.2,0,8,0s3.2,1.2,3.7,2.4c0.5,1.3,4,9.6,4.4,10.2c0.4,0.7,0.4,1.1,1.1,1.6
		c0.7,0.5,6.1,4.1,6.8,4.6c2.2,1.4,2.9,5.7-0.9,6.1c-2,0.2-4.4-1.5-6.1-2.4c-1-0.5-3.6-2.3-4.4-2.8c-0.8-0.5-2-1.9-2.5-3.2
		c-0.5-1.4-3.9-9.3-4.2-9.9c0.5,2,3.2,9.8,3.6,10.7c0.4,1,0.4,1.8,1.3,2.4c0.9,0.6,1.8,1.3,1.8,1.3s-0.3,5.5-0.3,5.9
		s0.7,0.9,1.1,1.4c0.4,0.5,5.4,5.9,5.9,6.6c0.5,0.6,1.5,2,1.9,3.1s6.1,19.5,6.4,20.4c0.3,0.8-0.6,5.4-4,5.4s-4.1-2.1-4.8-4
		c-0.6-2-5.2-17.1-5.5-17.8s-0.6-1.4-1-1.8c-0.4-0.4-4.2-4.3-4.5-4.5s-0.4-0.8-0.3-1.3s0.3-5.3,0.3-5.3s-2.7,11.2-2.9,11.7
		c-0.2,0.5-1.1,2.4-1.8,3.5S17.7,77.9,17.2,78.5S14.9,80,13.1,80C11.2,80,9,76.5,9,75.3s0.8-2.1,1.4-2.9c0.6-0.8,12.5-17,12.9-17.5
		s0.8-1.6,1.1-3.1c0.3-1.4,2.3-7.8,2.4-8.2s0-2.3,0-3.7s0-13.8,0-14.1S26.2,25,26,25.2s-5.3,4.1-5.6,4.5s-0.8,0.8-1.2,1.8
		c-0.4,1-3.1,6.5-3.4,7c-0.3,0.5-1.1,2.3-3.5,2.3S9,38,9,36.5s0.9-2.7,1.3-3.6c0.4-0.8,2.2-4.7,2.6-5.4s1.2-2.4,2.7-3.5
		s9.2-7,9.5-7.2C25.5,16.5,26.5,15.9,27.5,15.9z"/>
</g>
</svg>
