<?xml version="1.0" encoding="utf-8"?>
<!-- Generator: Adobe Illustrator 22.1.0, SVG Export Plug-In . SVG Version: 6.00 Build 0)  -->
<svg version="1.1" id="Layer_1" xmlns="http://www.w3.org/2000/svg" xmlns:xlink="http://www.w3.org/1999/xlink" x="0px" y="0px"
	 viewBox="0 0 64.1 80" style="enable-background:new 0 0 64.1 80;" xml:space="preserve">
<style type="text/css">
	.st0{fill:#020202;}
</style>
<g id="_x31_0_1_">
	<circle class="st0" cx="36" cy="6.4" r="6.4"/>
	<path class="st0" d="M32,52.1c-0.6-0.6-7.2-9.5-7.2-9.5L24.2,51c0,1.4-1.5,2.7-1.5,2.7L10.5,67.2c-1.5,1.5-1.9,3.7-0.8,5.5
		c1.2,2,3.9,2.7,5.9,1.4c0.3-0.1,0.5-0.3,0.7-0.5l14.1-15.7C33.2,54.8,32.6,52.7,32,52.1z"/>
	<path class="st0" d="M37.6,43.7c0,0,5.5,6.6,5.8,7c0.4,0.4,0.9,1.6,1.3,2.7c0.5,1.4,6.5,19.9,6.7,20.7c0.5,1.8,0.1,5.9-3.7,5.9
		s-4.6-3.5-4.9-4.5c-0.3-1-5-17.3-5.2-17.8s-0.6-1.1-0.8-1.4c-0.2-0.3-11-14.1-11.2-14.5S25,40,25.1,39.1s0.8-9.4,0.8-9.6
		s-0.5-0.7-0.8-0.3c-0.3,0.4-1.9,1.9-2,3.8c-0.2,2-0.7,6-0.8,6.4c-0.1,0.7-0.8,2.8-3.6,2.8c-2.6,0-3.4-2.4-3-4.5
		c0.3-1.5,1.3-8.6,2.4-10.5c0,0,8-10.2,8.4-10.6c0.4-0.5,1.2-0.9,2.1-0.9c1,0,6.4,0,7,0c0.6,0,4.2,0.9,4,4.4
		C39.3,23.6,37.6,43.7,37.6,43.7z"/>
	<path class="st0" d="M41.7,32.4c0,0,5.6,6.3,5.8,6.6c0.8,1,0.4,2.8,0,3.7c-0.6,1.3-3.5,2.5-4.8,1.1c-1.9-2.1-3.7-4-3.7-4l1.5-16.6
		c0,0,0.6,0.2,0.6,0.9s0.5,8.1,0.5,8.1L41.7,32.4z"/>
</g>
</svg>
