<?xml version="1.0" encoding="utf-8"?>
<!-- Generator: Adobe Illustrator 22.1.0, SVG Export Plug-In . SVG Version: 6.00 Build 0)  -->
<svg version="1.1" id="Layer_1" xmlns="http://www.w3.org/2000/svg" xmlns:xlink="http://www.w3.org/1999/xlink" x="0px" y="0px"
	 viewBox="0 0 64 80" style="enable-background:new 0 0 64 80;" xml:space="preserve">
<style type="text/css">
	.st0{fill:#020202;}
</style>
<g id="_x32_">
	<circle class="st0" cx="35.8" cy="6.4" r="6.4"/>
	<path class="st0" d="M37,35.6c0.4,0.5,4.8,5.3,5.7,6.1c0.9,0.8,1.5,1.7,3.4,1.7c2.4,0,4.7-3.2,2.3-5.8c-0.5-0.6-5.2-5.5-5.7-6
		s-0.5-1.5-0.7-2.2c-0.2-0.7-1.3-5.4-2.1-9.5c-0.5-2.9-2.6-4.6-4.9-4.6c-0.7,0-4.7,0-6,0c-0.8,0-1.5,0.3-2,0.6
		c0,2.6-0.1,5.6-0.2,8.5c-0.1,3.9-0.2,7.7-0.2,9.8h-0.2c-0.4,6.2-1.1,16.9-1.2,17.4c-0.1,0.7-0.1,1.3-0.4,2.1
		c-0.4,0.8-8.9,17.8-10,19.9c-1,2.5,1.7,6.4,4.3,6.4s3.5-2,4.1-3c0.5-1,9.6-19,10-19.8s0.5-1.3,0.6-2.2c0.4-1.6,1-4.3,1.2-6
		c0.2-1.8,0.5-3.6,0.7-5.3c0.1,1.8,0,3.6-0.1,5.4c-0.1,1.8-0.2,2.8-0.3,4.6c-0.1,1.1,0,1.6,0.5,2c0.4,0.4,0.9,0.9,1,1.1
		c0.2,0.4,0.1,1.1,0.1,1.7c0,0.6,1.2,14.6,1.3,15.5c0.1,0.8,0.4,4.4,4.9,4.4s4.2-5.8,4-6.9c-0.2-1.1-1-10.6-1.6-15.2
		c-0.2-1.6-0.7-3.1-1.5-4.4c-1.7-2.7-3.4-5.2-4.2-6.1c-2.3-2.9-3.4-4.8-4.5-12.8c-0.1-0.7-1.5-7.7-1.5-9.4c0.2,0.4,1.6,6.6,1.9,8
		C36.2,32.9,36.5,35.1,37,35.6z"/>
	<path class="st0" d="M20.3,42.9c2.4,0,3.5-2.7,3.6-3.3s0.5-4.7,0.6-6s0.3-2.5,0.4-2.9c0.2-0.4,0.3-1.1,0.7-1.1c0.1,0,0.2,0,0.3,0.1
		c0-1.6,0.1-3.4,0.1-5.2c0.1-2.7,0.1-5.4,0.2-7.8c-0.1,0.1-0.2,0.2-0.3,0.3c-0.4,0.5-6.9,10.3-7.4,11.5s-0.7,2.1-0.9,2.8
		c-0.2,0.7-0.8,6.2-0.9,7.9C16.6,40.9,17.9,42.9,20.3,42.9z"/>
</g>
</svg>
