<?xml version="1.0" encoding="utf-8"?>
<!-- Generator: Adobe Illustrator 22.1.0, SVG Export Plug-In . SVG Version: 6.00 Build 0)  -->
<svg version="1.1" id="Layer_1" xmlns="http://www.w3.org/2000/svg" xmlns:xlink="http://www.w3.org/1999/xlink" x="0px" y="0px"
	 viewBox="0 0 64.1 80" style="enable-background:new 0 0 64.1 80;" xml:space="preserve">
<style type="text/css">
	.st0{fill:#020202;}
</style>
<g id="_x31_3">
	<g id="four_2_">
		<circle class="st0" cx="34.1" cy="6.1" r="6.1"/>
	</g>
	<path class="st0" d="M38.1,58.9"/>
	<path class="st0" d="M38.1,58.9c-0.1-2.7-0.9-14.4-1-15.3l0,0c0-0.5,0-0.9,0-1.3c0-0.6,0.1-20.9,0.1-22.7c-0.1-6.4-6.1-5.5-9.9-5.1
		c-1.9,0.2-2.8,1.8-2.9,2.7c0,0.8-0.5,9.8-0.5,10.1c0,0.3,0.1,0.9,0.2,1.6c0.1,0.7,0.4,1.9,0.7,2.6c0.1,0.2,0.2,0.4,0.3,0.5
		c0.4,0.8,0.8,1.5,1.1,2.3c0.4,0.8,0.8,1.5,1.2,2.3c0.4,0.7,0.9,1.4,1.4,2.1c0.5,0.6,1.1,1.2,1.8,1.5c0.4,0.1,0.7,0.2,1.1,0.1
		c0.4,0,0.8-0.1,1.1-0.3c0.7-0.3,1.3-0.8,1.5-1.5c0.3-0.7,0.2-1.5,0.1-2.3c-0.2-0.8-0.5-1.5-0.8-2.3c-0.7-1.6-1.5-3.1-2.1-4.7
		c-0.2-0.4-0.3-0.8-0.4-1.3v-0.1v-0.1v-0.1v-0.3v-0.6V24c0.1-1.7,0.1-3.4,0.2-5.1c0.1,1.7,0.1,3.4,0.2,5.1l0.1,2.6v0.6v0.3v0.2l0,0
		v0.1c0.1,0.4,0.3,0.8,0.4,1.1c0.7,1.5,1.4,3.1,2.2,4.6c0.4,0.7,0.8,1.6,0.9,2.5c0.2,0.9,0.2,1.8-0.1,2.7c-0.3,0.9-1.1,1.7-2,2
		c-0.4,0.2-0.9,0.3-1.3,0.3c-0.5,0.1-1,0-1.4-0.2c-0.9-0.4-1.5-1.1-2.1-1.7c-0.6-0.7-1-1.4-1.4-2.2c-0.4-0.8-0.8-1.5-1.1-2.3
		c-0.3-0.7-0.6-1.4-0.9-2c0.2,1.9,0.7,6,0.8,6.9c0.1,1.1,0.5,1.7,0.8,2.2c0.3,3.8,1,7.8,1.1,11.5c0.2,10.6,0.2,19.6,0.4,21.9
		c0,0.9,0.5,1.8,1.1,2.5c-0.2-0.3-0.3-0.7-0.4-1c0-0.2-0.1-0.4-0.1-0.7c0-0.2,0-0.4,0-0.6l0.1-2.5l0.7-9.8c0.1-1.6,0.1-3.3,0.2-4.9
		c0-0.8,0-1.6,0-2.5L29.4,53l-0.2-4.9l-0.1-2.5c0-0.8-0.1-1.6-0.2-2.5c0.1,0.8,0.2,1.6,0.3,2.5l0.2,2.5c0.1,1.6,0.2,3.3,0.4,4.9
		c0.1,1.6,0.3,3.3,0.3,4.9c0,1.7,0,3.3,0,5c0,1.1-0.1,2.3-0.1,3.4c-0.1,1.4-0.2,2.9-0.3,4.6c0,0.6-0.1,1.2-0.1,1.9l-0.2,2.5
		l-0.1,0.6c0,1.8,1.8,4.1,4.3,4.1c2.8,0,4-2.9,4-3.6C37.6,75.5,38.3,61.7,38.1,58.9z"/>
	<path class="st0" d="M37.1,43.6"/>
</g>
</svg>
